<?xml version="1.0" encoding="UTF-8"?>
<!-- This file is generated by npm run build:icons -->
<svg xmlns="http://www.w3.org/2000/svg" xmlns:xlink="http://www.w3.org/1999/xlink" width="0" height="0">
<defs>
<symbol viewBox="0 0 24 24" id="account">
<path fill-rule="evenodd" clip-rule="evenodd" d="M6.46488 3.9734C8.0924 2.85119 10.0226 2.25024 11.9995 2.25024C13.9764 2.25024 15.9066 2.85119 17.5342 3.9734C19.1617 5.0956 20.4096 6.68603 21.1125 8.53378C21.8153 10.3815 21.9399 12.3993 21.4697 14.3194C20.9996 16.239 19.9582 17.9707 18.4813 19.2846C16.6978 20.8755 14.3897 21.7531 12.0001 21.75C9.60995 21.7533 7.30244 20.8756 5.51878 19.2846C4.04206 17.9709 2.99952 16.2393 2.52936 14.3194C2.05912 12.3993 2.18369 10.3815 2.88655 8.53378C3.58941 6.68603 4.83735 5.0956 6.46488 3.9734ZM11.9995 3.75024C10.3267 3.75024 8.69349 4.25874 7.31636 5.2083C5.93922 6.15785 4.88327 7.5036 4.28855 9.06708C3.69382 10.6306 3.58841 12.3379 3.98631 13.9626C4.3842 15.5874 5.2666 17.0528 6.51647 18.1646L6.51725 18.1653C8.02578 19.5108 9.97742 20.2531 11.9989 20.2499H12.0011C14.0223 20.2528 15.9745 19.5106 17.4828 18.1653L17.4836 18.1646C18.7332 17.053 19.6148 15.5876 20.0127 13.9626C20.4106 12.3379 20.3052 10.6306 19.7105 9.06708C19.1158 7.5036 18.0598 6.15785 16.6827 5.2083C15.3055 4.25874 13.6723 3.75024 11.9995 3.75024ZM12 7.49995C11.4033 7.49995 10.831 7.737 10.409 8.15896C9.98707 8.58092 9.75001 9.15321 9.75001 9.74995C9.75001 10.3467 9.98707 10.919 10.409 11.3409C10.831 11.7629 11.4033 11.9999 12 11.9999C12.5968 11.9999 13.169 11.7629 13.591 11.3409C14.013 10.919 14.25 10.3467 14.25 9.74995C14.25 9.15321 14.013 8.58092 13.591 8.15896C13.169 7.737 12.5968 7.49995 12 7.49995ZM9.34836 7.0983C10.0516 6.39504 11.0055 5.99995 12 5.99995C12.9946 5.99995 13.9484 6.39504 14.6517 7.0983C15.3549 7.80156 15.75 8.75539 15.75 9.74995C15.75 10.7445 15.3549 11.6983 14.6517 12.4016C13.9484 13.1049 12.9946 13.4999 12 13.4999C11.0055 13.4999 10.0516 13.1049 9.34836 12.4016C8.6451 11.6983 8.25001 10.7445 8.25001 9.74995C8.25001 8.75539 8.6451 7.80156 9.34836 7.0983Z"></path>
<path fill-rule="evenodd" clip-rule="evenodd" d="M8.30689 15.8618C9.44872 15.294 10.7068 14.999 11.982 15C13.2573 14.999 14.5154 15.294 15.6572 15.8618C16.7992 16.4298 17.7938 17.2552 18.5625 18.273C18.8122 18.6035 18.7466 19.0738 18.4161 19.3235C18.0855 19.5731 17.6152 19.5076 17.3656 19.177C16.7368 18.3446 15.9233 17.6695 14.9893 17.2049C14.0552 16.7404 13.026 16.4991 11.9827 16.5H11.9814C10.9381 16.4991 9.90893 16.7404 8.97483 17.2049C8.04074 17.6695 7.22727 18.3446 6.59852 19.177C6.34887 19.5076 5.87855 19.5731 5.54802 19.3235C5.21749 19.0738 5.15192 18.6035 5.40156 18.273C6.17029 17.2552 7.16485 16.4298 8.30689 15.8618ZM11.982 15C11.9823 15 11.9825 15 11.9827 15L11.982 15.75L11.9814 15C11.9816 15 11.9818 15 11.982 15Z"></path>
</symbol>
<symbol viewBox="0 0 24 24" id="arrowCircleRight">
<path fill-rule="evenodd" clip-rule="evenodd" d="M12 2C6.47715 2 2 6.47715 2 12C2 17.5229 6.47715 22 12 22C17.5229 22 22 17.5229 22 12C22 6.47715 17.5229 2 12 2ZM12 20C7.58172 20 4 16.4183 4 12C4 7.58172 7.58172 4 12 4C16.4183 4 20 7.58172 20 12C20 16.4183 16.4183 20 12 20ZM17 11.91V12C16.9997 12.134 16.9725 12.2667 16.92 12.39C16.8713 12.5092 16.7999 12.6178 16.71 12.71L13.71 15.71L13.7042 15.7158C13.3121 16.1047 12.6789 16.1021 12.29 15.71L12.2842 15.7042C11.8953 15.3121 11.8979 14.6789 12.29 14.29L13.59 13H8C7.44772 13 7 12.5523 7 12C7 11.4477 7.44772 11 8 11H13.66L12.43 9.69C12.0489 9.28959 12.0646 8.65608 12.465 8.275C12.8654 7.89392 13.4989 7.90959 13.88 8.31L16.74 11.31C16.7734 11.3509 16.8035 11.3944 16.83 11.44C16.8762 11.4973 16.9133 11.5614 16.94 11.63C16.9752 11.7194 16.9954 11.814 17 11.91Z"></path>
</symbol>
<symbol viewBox="0 0 24 24" id="arrowLeft">
<path fill-rule="evenodd" clip-rule="evenodd" d="M7.28033 7.71967C7.57322 8.01256 7.57322 8.48744 7.28033 8.78033L4.81066 11.25H21C21.4142 11.25 21.75 11.5858 21.75 12C21.75 12.4142 21.4142 12.75 21 12.75H4.81066L7.28033 15.2197C7.57322 15.5126 7.57322 15.9874 7.28033 16.2803C6.98744 16.5732 6.51256 16.5732 6.21967 16.2803L2.46967 12.5303C2.17678 12.2374 2.17678 11.7626 2.46967 11.4697L6.21967 7.71967C6.51256 7.42678 6.98744 7.42678 7.28033 7.71967Z"></path>
</symbol>
<symbol viewBox="0 0 24 24" id="bell">
<path d="M12.06 21.5C11.47 21.5 10.89 21.36 10.36 21.09C9.83997 20.82 9.37997 20.43 9.02997 19.96C8.67997 19.48 8.44997 18.93 8.35997 18.35C8.30997 18.06 8.29997 17.77 8.31997 17.47C6.66997 17.22 5.04997 16.8 3.48997 16.23C3.25997 16.14 3.07997 15.95 3.01997 15.71C2.95997 15.47 3.01997 15.21 3.18997 15.03C4.55997 13.51 5.30997 11.55 5.30997 9.51001V8.76001C5.30997 6.96001 6.00997 5.26001 7.28997 3.99001C8.56997 2.72001 10.26 2.01001 12.06 2.01001C13.86 2.01001 15.56 2.71001 16.83 3.99001C18.11 5.26001 18.81 6.96001 18.81 8.76001V9.51001C18.81 11.55 19.56 13.51 20.93 15.03C21.1 15.22 21.16 15.47 21.1 15.71C21.04 15.95 20.86 16.15 20.63 16.23C19.07 16.81 17.45 17.22 15.8 17.47C15.82 17.76 15.8 18.06 15.76 18.35C15.67 18.93 15.43 19.49 15.09 19.96C14.74 20.44 14.28 20.83 13.76 21.09C13.24 21.36 12.65 21.5 12.06 21.5ZM9.80997 17.65C9.80997 17.8 9.80997 17.96 9.83997 18.11C9.89997 18.46 10.04 18.79 10.24 19.08C10.45 19.36 10.72 19.6 11.04 19.76C11.67 20.08 12.45 20.08 13.08 19.76C13.39 19.6 13.67 19.37 13.88 19.08C14.09 18.8 14.23 18.46 14.28 18.11C14.3 17.96 14.31 17.81 14.31 17.65C12.82 17.78 11.31 17.78 9.80997 17.65ZM9.29997 16.09C11.13 16.3 12.98 16.3 14.81 16.09C14.81 16.09 14.83 16.09 14.84 16.09C16.29 15.92 17.72 15.61 19.11 15.16C17.94 13.52 17.3 11.54 17.3 9.50001V8.75001C17.3 7.35001 16.75 6.03001 15.76 5.04001C14.78 4.06001 13.43 3.50001 12.05 3.50001C10.67 3.50001 9.32997 4.05001 8.33997 5.04001C7.34997 6.03001 6.79997 7.35001 6.79997 8.75001V9.50001C6.79997 11.54 6.16997 13.52 4.98997 15.16C6.37997 15.6 7.80997 15.91 9.26997 16.09C9.26997 16.09 9.28997 16.09 9.29997 16.09Z"></path>
</symbol>
<symbol viewBox="0 0 24 24" id="chevronDown">
<path fill-rule="evenodd" clip-rule="evenodd" d="M12.5303 16.2803C12.2374 16.5732 11.7626 16.5732 11.4697 16.2803L3.96967 8.78033C3.67678 8.48744 3.67678 8.01256 3.96967 7.71967C4.26256 7.42678 4.73744 7.42678 5.03033 7.71967L12 14.6893L18.9697 7.71967C19.2626 7.42678 19.7374 7.42678 20.0303 7.71967C20.3232 8.01256 20.3232 8.48744 20.0303 8.78033L12.5303 16.2803Z"></path>
</symbol>
<symbol viewBox="0 0 24 24" id="chevronUp">
<path fill-rule="evenodd" clip-rule="evenodd" d="M11.4697 7.71967C11.7626 7.42678 12.2374 7.42678 12.5303 7.71967L20.0303 15.2197C20.3232 15.5126 20.3232 15.9874 20.0303 16.2803C19.7374 16.5732 19.2626 16.5732 18.9697 16.2803L12 9.31066L5.03033 16.2803C4.73744 16.5732 4.26256 16.5732 3.96967 16.2803C3.67678 15.9874 3.67678 15.5126 3.96967 15.2197L11.4697 7.71967Z"></path>
</symbol>
<symbol viewBox="0 0 24 24" id="close">
<path fill-rule="evenodd" clip-rule="evenodd" d="M5.46967 5.46967C5.76256 5.17678 6.23744 5.17678 6.53033 5.46967L12 10.9393L17.4697 5.46967C17.7626 5.17678 18.2374 5.17678 18.5303 5.46967C18.8232 5.76256 18.8232 6.23744 18.5303 6.53033L13.0607 12L18.5303 17.4697C18.8232 17.7626 18.8232 18.2374 18.5303 18.5303C18.2374 18.8232 17.7626 18.8232 17.4697 18.5303L12 13.0607L6.53033 18.5303C6.23744 18.8232 5.76256 18.8232 5.46967 18.5303C5.17678 18.2374 5.17678 17.7626 5.46967 17.4697L10.9393 12L5.46967 6.53033C5.17678 6.23744 5.17678 5.76256 5.46967 5.46967Z"></path>
</symbol>
<symbol viewBox="0 0 24 24" id="desktop">
<path fill-rule="evenodd" clip-rule="evenodd" d="M3.12868 3.12868C3.69129 2.56607 4.45435 2.25 5.25 2.25H18.75C19.5456 2.25 20.3087 2.56607 20.8713 3.12868C21.4339 3.69129 21.75 4.45435 21.75 5.25V15C21.75 15.7956 21.4339 16.5587 20.8713 17.1213C20.3087 17.6839 19.5457 18 18.75 18H15.75V18.257C15.75 18.5526 15.8082 18.8454 15.9213 19.1184C16.0344 19.3915 16.2002 19.6396 16.4092 19.8486L17.0303 20.4697C17.2448 20.6842 17.309 21.0068 17.1929 21.287C17.0768 21.5673 16.8033 21.75 16.5 21.75H7.5C7.19665 21.75 6.92318 21.5673 6.80709 21.287C6.691 21.0068 6.75517 20.6842 6.96967 20.4697L7.59067 19.8487C7.79971 19.6397 7.9656 19.3915 8.07872 19.1184C8.19183 18.8454 8.25004 18.5527 8.25 18.2571V18H5.25C4.45435 18 3.69129 17.6839 3.12868 17.1213C2.56607 16.5587 2.25 15.7956 2.25 15V5.25C2.25 4.45435 2.56607 3.69129 3.12868 3.12868ZM3.75 5.25V12C3.75 12.3978 3.90804 12.7794 4.18934 13.0607C4.47064 13.342 4.85218 13.5 5.25 13.5H18.75C19.1478 13.5 19.5294 13.342 19.8107 13.0607C20.092 12.7794 20.25 12.3978 20.25 12V5.25C20.25 4.85218 20.092 4.47064 19.8107 4.18934C19.5294 3.90804 19.1478 3.75 18.75 3.75H5.25C4.85218 3.75 4.47064 3.90804 4.18934 4.18934C3.90804 4.47064 3.75 4.85218 3.75 5.25ZM20.25 14.5981C19.7978 14.8591 19.2812 15 18.75 15H5.25C4.71883 15 4.20218 14.8591 3.75 14.5981V15C3.75 15.3978 3.90804 15.7794 4.18934 16.0607C4.47064 16.342 4.85218 16.5 5.25 16.5H18.75C19.1478 16.5 19.5294 16.342 19.8107 16.0607C20.092 15.7794 20.25 15.3978 20.25 15V14.5981ZM14.25 18H9.75V18.2569C9.75 18.2569 9.75 18.2569 9.75 18.2569C9.75005 18.7495 9.65304 19.2374 9.46453 19.6925C9.38416 19.8865 9.28783 20.0729 9.17677 20.25H14.8232C14.7122 20.0729 14.6158 19.8865 14.5355 19.6925C14.347 19.2374 14.25 18.7496 14.25 18.257C14.25 18.257 14.25 18.257 14.25 18.257V18Z"></path>
</symbol>
<symbol viewBox="0 0 24 24" id="dollarSign">
<path fill-rule="evenodd" clip-rule="evenodd" d="M12 3.75C9.81196 3.75 7.71354 4.61919 6.16637 6.16637C4.61919 7.71354 3.75 9.81196 3.75 12C3.75 13.0834 3.96339 14.1562 4.37799 15.1571C4.79259 16.1581 5.40029 17.0675 6.16637 17.8336C6.93245 18.5997 7.84193 19.2074 8.84286 19.622C9.8438 20.0366 10.9166 20.25 12 20.25C13.0834 20.25 14.1562 20.0366 15.1571 19.622C16.1581 19.2074 17.0675 18.5997 17.8336 17.8336C18.5997 17.0675 19.2074 16.1581 19.622 15.1571C20.0366 14.1562 20.25 13.0834 20.25 12C20.25 9.81196 19.3808 7.71354 17.8336 6.16637C16.2865 4.61919 14.188 3.75 12 3.75ZM5.10571 5.10571C6.93419 3.27723 9.41414 2.25 12 2.25C14.5859 2.25 17.0658 3.27723 18.8943 5.10571C20.7228 6.93419 21.75 9.41414 21.75 12C21.75 13.2804 21.4978 14.5482 21.0078 15.7312C20.5178 16.9141 19.7997 17.9889 18.8943 18.8943C17.9889 19.7997 16.9141 20.5178 15.7312 21.0078C14.5482 21.4978 13.2804 21.75 12 21.75C10.7196 21.75 9.45176 21.4978 8.26884 21.0078C7.08591 20.5178 6.01108 19.7997 5.10571 18.8943C4.20034 17.9889 3.48216 16.9141 2.99217 15.7312C2.50219 14.5482 2.25 13.2804 2.25 12C2.25 9.41414 3.27723 6.93419 5.10571 5.10571ZM12 5.25C12.4142 5.25 12.75 5.58579 12.75 6V6.8154C13.377 6.92651 13.9749 7.17866 14.4696 7.57185L14.4698 7.57197L14.8848 7.90197C15.209 8.15977 15.2628 8.63159 15.005 8.95579C14.7472 9.28 14.2754 9.33383 13.9512 9.07603L13.5364 8.74615C13.3092 8.56562 13.0393 8.43432 12.75 8.35228V11.3095C13.4019 11.414 14.0379 11.6583 14.571 12.059C15.3161 12.6179 15.75 13.4034 15.75 14.25C15.75 15.0966 15.3161 15.8821 14.571 16.441C14.0378 16.8409 13.402 17.0857 12.75 17.1905V18C12.75 18.4142 12.4142 18.75 12 18.75C11.5858 18.75 11.25 18.4142 11.25 18V17.1906C10.598 17.0859 9.9622 16.8411 9.42911 16.4411C9.42899 16.441 9.42887 16.4409 9.42875 16.4408L8.55011 15.7821C8.21869 15.5336 8.15145 15.0635 8.39992 14.7321C8.64839 14.4007 9.11847 14.3335 9.44989 14.5819L10.3289 15.2409L10.3292 15.2412C10.5866 15.4344 10.9029 15.5774 11.25 15.6619V12.6843C10.6326 12.5748 10.0329 12.3271 9.53068 11.9284L9.53036 11.9282C8.81819 11.3622 8.4175 10.5787 8.4175 9.75C8.4175 8.92134 8.81819 8.13785 9.53036 7.57185C10.0251 7.17866 10.623 6.92651 11.25 6.8154V6C11.25 5.58579 11.5858 5.25 12 5.25ZM11.25 8.35228C10.9607 8.43432 10.6908 8.56562 10.4636 8.74615C10.0698 9.05915 9.9175 9.42716 9.9175 9.75C9.9175 10.0728 10.0698 10.4408 10.4636 10.7538C10.6861 10.9303 10.9552 11.0636 11.25 11.1473V8.35228ZM12.75 12.8381V15.6617C13.097 15.5772 13.4134 15.4342 13.671 15.241C14.0979 14.9209 14.25 14.5549 14.25 14.25C14.25 13.9451 14.0979 13.5791 13.671 13.259L13.6702 13.2584C13.4135 13.0653 13.0973 12.9224 12.75 12.8381Z"></path>
</symbol>
<symbol viewBox="0 0 24 24" id="email">
<path fill-rule="evenodd" clip-rule="evenodd" d="M2.37868 4.62868C2.94129 4.06607 3.70435 3.75 4.5 3.75H19.5C20.2957 3.75 21.0587 4.06607 21.6213 4.62868C22.1839 5.19129 22.5 5.95435 22.5 6.75V6.99292V17.25C22.5 18.0456 22.1839 18.8087 21.6213 19.3713C21.0587 19.9339 20.2957 20.25 19.5 20.25H4.5C3.70435 20.25 2.94129 19.9339 2.37868 19.3713C1.81607 18.8087 1.5 18.0456 1.5 17.25V6.99458V6.75C1.5 5.95435 1.81607 5.19129 2.37868 4.62868ZM3 6.75V6.994C3 6.99411 3 6.99389 3 6.994C3.00003 7.24998 3.06557 7.50212 3.19038 7.72561C3.31518 7.94909 3.49509 8.13691 3.71299 8.2712L11.213 12.8852C11.4495 13.0309 11.7222 13.1082 12 13.1082C12.2778 13.1082 12.5501 13.0311 12.7867 12.8854L20.2867 8.27042C20.5046 8.13612 20.6848 7.94811 20.8096 7.72461C20.9344 7.50112 21 7.2494 21 6.99342C21 6.99331 21 6.99353 21 6.99342V6.75C21 6.35218 20.842 5.97064 20.5607 5.68934C20.2794 5.40804 19.8978 5.25 19.5 5.25H4.5C4.10218 5.25 3.72064 5.40804 3.43934 5.68934C3.15804 5.97064 3 6.35218 3 6.75ZM21 9.59271L13.5733 14.1626C13.5732 14.1626 13.5734 14.1625 13.5733 14.1626C13.1003 14.4538 12.5555 14.6082 12 14.6082C11.4445 14.6082 10.9 14.454 10.427 14.1628C10.4269 14.1627 10.4271 14.1629 10.427 14.1628L3 9.5937V17.25C3 17.6478 3.15804 18.0294 3.43934 18.3107C3.72064 18.592 4.10218 18.75 4.5 18.75H19.5C19.8978 18.75 20.2794 18.592 20.5607 18.3107C20.842 18.0294 21 17.6478 21 17.25V9.59271Z"></path>
</symbol>
<symbol viewBox="0 0 24 24" id="expand">
<path fill-rule="evenodd" clip-rule="evenodd" d="M3 3.75C3 3.33579 3.33579 3 3.75 3H8.25C8.66421 3 9 3.33579 9 3.75C9 4.16421 8.66421 4.5 8.25 4.5H5.56066L9.53033 8.46967C9.82322 8.76256 9.82322 9.23744 9.53033 9.53033C9.23744 9.82322 8.76256 9.82322 8.46967 9.53033L4.5 5.56066V8.25C4.5 8.66421 4.16421 9 3.75 9C3.33579 9 3 8.66421 3 8.25V3.75ZM15 3.75C15 3.33579 15.3358 3 15.75 3H20.25C20.6642 3 21 3.33579 21 3.75V8.25C21 8.66421 20.6642 9 20.25 9C19.8358 9 19.5 8.66421 19.5 8.25V5.56066L15.5303 9.53033C15.2374 9.82322 14.7626 9.82322 14.4697 9.53033C14.1768 9.23744 14.1768 8.76256 14.4697 8.46967L18.4393 4.5H15.75C15.3358 4.5 15 4.16421 15 3.75ZM9.53033 14.4697C9.82322 14.7626 9.82322 15.2374 9.53033 15.5303L5.56066 19.5H8.25C8.66421 19.5 9 19.8358 9 20.25C9 20.6642 8.66421 21 8.25 21H3.75C3.33579 21 3 20.6642 3 20.25V15.75C3 15.3358 3.33579 15 3.75 15C4.16421 15 4.5 15.3358 4.5 15.75V18.4393L8.46967 14.4697C8.76256 14.1768 9.23744 14.1768 9.53033 14.4697ZM14.4697 14.4697C14.7626 14.1768 15.2374 14.1768 15.5303 14.4697L19.5 18.4393V15.75C19.5 15.3358 19.8358 15 20.25 15C20.6642 15 21 15.3358 21 15.75V20.25C21 20.6642 20.6642 21 20.25 21H15.75C15.3358 21 15 20.6642 15 20.25C15 19.8358 15.3358 19.5 15.75 19.5H18.4393L14.4697 15.5303C14.1768 15.2374 14.1768 14.7626 14.4697 14.4697Z"></path>
</symbol>
<symbol viewBox="0 0 24 24" id="eye">
<path fill-rule="evenodd" clip-rule="evenodd" d="M12 5.25C7.69257 5.25 4.03586 8.04402 2.74773 11.9196L2.74765 11.9198C2.72979 11.9735 2.72979 12.0315 2.74765 12.0852C4.03874 15.9589 7.69454 18.75 12 18.75C16.3075 18.75 19.9641 15.956 21.2512 12.0806L21.2522 12.0778C21.2701 12.0246 21.2697 11.969 21.2525 11.9183L21.2515 11.9151C19.9605 8.04115 16.3055 5.25 12 5.25ZM1.32437 11.4462C2.81031 6.97587 7.02754 3.75 12 3.75C16.9705 3.75 21.1856 6.97285 22.6745 11.4409C22.7961 11.8027 22.7956 12.1934 22.6743 12.5548C21.189 17.0247 16.972 20.25 12 20.25C7.02961 20.25 2.8135 17.0272 1.32448 12.5591L1.32437 12.5588C1.20424 12.1977 1.20421 11.8075 1.32429 11.4464"></path>
<path fill-rule="evenodd" clip-rule="evenodd" d="M12 9.75C11.4033 9.75 10.831 9.98705 10.409 10.409C9.98705 10.831 9.75 11.4033 9.75 12C9.75 12.5967 9.98705 13.169 10.409 13.591C10.831 14.0129 11.4033 14.25 12 14.25C12.5967 14.25 13.169 14.0129 13.591 13.591C14.0129 13.169 14.25 12.5967 14.25 12C14.25 11.4033 14.0129 10.831 13.591 10.409C13.169 9.98705 12.5967 9.75 12 9.75ZM9.34835 9.34835C10.0516 8.64509 11.0054 8.25 12 8.25C12.9946 8.25 13.9484 8.64509 14.6517 9.34835C15.3549 10.0516 15.75 11.0054 15.75 12C15.75 12.9946 15.3549 13.9484 14.6517 14.6517C13.9484 15.3549 12.9946 15.75 12 15.75C11.0054 15.75 10.0516 15.3549 9.34835 14.6517C8.64509 13.9484 8.25 12.9946 8.25 12C8.25 11.0054 8.64509 10.0516 9.34835 9.34835Z"></path>
</symbol>
<symbol viewBox="0 0 24 24" id="eyeHidden">
<path fill-rule="evenodd" clip-rule="evenodd" d="M11.9988 5.25001C10.0942 5.24712 8.23078 5.80497 6.64104 6.854C6.29531 7.08214 5.83011 6.98682 5.60197 6.64109C5.37383 6.29537 5.46916 5.83016 5.81488 5.60202C7.65027 4.39088 9.80156 3.74678 12.0005 3.75001C17.0971 3.75026 21.3997 7.13895 22.7837 11.7838C22.8254 11.9238 22.8254 12.0728 22.7836 12.2128C22.0251 14.751 20.3968 16.941 18.1846 18.3983C17.8387 18.6262 17.3735 18.5305 17.1457 18.1846C16.9178 17.8387 17.0135 17.3736 17.3594 17.1457C19.2146 15.9235 20.5961 14.107 21.2796 11.9977C20.013 8.08147 16.3363 5.25001 12 5.25001L11.9988 5.25001ZM12.0005 3.75001C12.0007 3.75001 12.0009 3.75001 12.0011 3.75001L12 4.50001V3.75001C12.0001 3.75001 12.0003 3.75001 12.0005 3.75001ZM4.46479 7.65079C4.78082 7.91855 4.81995 8.39181 4.55218 8.70784C3.73199 9.67587 3.10958 10.7945 2.71929 12.0002C3.98587 15.9184 7.66346 18.75 12 18.75C12.9231 18.75 13.8146 18.6218 14.6591 18.3832C15.0577 18.2707 15.4721 18.5026 15.5847 18.9012C15.6973 19.2998 15.4654 19.7142 15.0668 19.8268C14.0914 20.1023 13.0628 20.25 12 20.25C6.90312 20.25 2.59924 16.8613 1.21516 12.2141C1.17352 12.0743 1.17356 11.9254 1.21527 11.7856C1.65871 10.2995 2.40522 8.9214 3.40774 7.73818C3.6755 7.42215 4.14876 7.38302 4.46479 7.65079ZM10.5653 8.53573C11.0203 8.34726 11.508 8.25026 12.0005 8.25026C12.4929 8.25026 12.9806 8.34726 13.4356 8.53573C13.8906 8.7242 14.304 9.00044 14.6523 9.34868C15.0005 9.69692 15.2768 10.1103 15.4652 10.5654C15.6537 11.0204 15.7507 11.508 15.7507 12.0005C15.7507 12.493 15.6537 12.9807 15.4652 13.4357C15.2768 13.8907 15.0005 14.3041 14.6523 14.6523C14.3594 14.9452 13.8845 14.9452 13.5916 14.6523C13.2987 14.3594 13.2987 13.8846 13.5916 13.5917C13.8006 13.3827 13.9663 13.1347 14.0794 12.8616C14.1925 12.5886 14.2507 12.296 14.2507 12.0005C14.2507 11.705 14.1925 11.4124 14.0794 11.1394C13.9663 10.8664 13.8006 10.6183 13.5916 10.4093C13.3827 10.2004 13.1346 10.0346 12.8616 9.92155C12.5886 9.80846 12.296 9.75026 12.0005 9.75026C11.705 9.75026 11.4123 9.80846 11.1393 9.92155C10.8663 10.0346 10.6182 10.2004 10.4093 10.4093C10.1164 10.7022 9.64152 10.7022 9.34863 10.4093C9.05574 10.1164 9.05574 9.64157 9.34863 9.34868C9.69687 9.00044 10.1103 8.7242 10.5653 8.53573Z"></path>
<path fill-rule="evenodd" clip-rule="evenodd" d="M2.46967 2.46967C2.76256 2.17678 3.23744 2.17678 3.53033 2.46967L21.5303 20.4697C21.8232 20.7626 21.8232 21.2374 21.5303 21.5303C21.2374 21.8232 20.7626 21.8232 20.4697 21.5303L2.46967 3.53033C2.17678 3.23744 2.17678 2.76256 2.46967 2.46967Z"></path>
</symbol>
<symbol viewBox="0 0 24 24" id="gear">
<path d="M13.3 21.8H10.7C9.8 21.8 9 21.1 8.8 20.2L8.6 18.9C8.6 18.8 8.5 18.6 8.3 18.6C8.2 18.6 8.1 18.5 8.1 18.5C8 18.4 7.8 18.4 7.7 18.4L6.5 18.9C6.1 19.1 5.6 19.1 5.2 18.9C4.8 18.7 4.4 18.5 4.2 18.1L2.9 15.9C2.7 15.5 2.6 15.1 2.7 14.6C2.8 14 3 13.6 3.3 13.4L4.3 12.6C4.4 12.5 4.5 12.4 4.5 12.2V11.9C4.5 11.7 4.4 11.6 4.3 11.5L3.3 10.7C3 10.4 2.8 10 2.7 9.50001C2.6 9.10001 2.7 8.60001 2.9 8.20001L4.2 6.00001C4.4 5.60001 4.8 5.30001 5.2 5.20001C5.6 5.00001 6.1 5.00001 6.5 5.20001L7.7 5.70001C7.8 5.70001 8 5.70001 8.1 5.60001L8.3 5.50001C8.5 5.40001 8.6 5.30001 8.6 5.20001L8.8 3.90001C9 2.90001 9.8 2.20001 10.7 2.20001H13.3C14.2 2.20001 15 2.90001 15.2 3.80001L15.4 5.10001C15.4 5.20001 15.5 5.40001 15.7 5.40001C15.8 5.40001 15.9 5.50001 15.9 5.50001C16 5.60001 16.2 5.60001 16.3 5.60001L17.5 5.10001C17.9 4.90001 18.4 4.90001 18.8 5.10001C19.2 5.20001 19.6 5.50001 19.8 5.90001L21.1 8.10001C21.3 8.50001 21.4 8.90001 21.3 9.40001C21.2 9.80001 21 10.2 20.6 10.5L19.6 11.3C19.5 11.4 19.4 11.5 19.4 11.7V12C19.4 12.2 19.5 12.3 19.6 12.4L20.6 13.2C21.3 13.8 21.5 14.8 21 15.6L19.8 18C19.6 18.4 19.2 18.7 18.8 18.8C18.4 18.9 17.9 18.9 17.5 18.8L16.3 18.3C16.2 18.3 16 18.3 15.9 18.4C15.8 18.4 15.7 18.5 15.7 18.5C15.6 18.6 15.5 18.7 15.4 18.8L15.2 20.1C15 21.1 14.2 21.8 13.3 21.8ZM7.8 16.8C8.2 16.8 8.5 16.9 8.9 17.1L9.1 17.2C9.7 17.5 10 18 10.1 18.6L10.3 19.9C10.3 20.1 10.5 20.2 10.7 20.2H13.3C13.5 20.2 13.6 20.1 13.7 19.9L13.9 18.6C14 18 14.4 17.5 14.9 17.2L15.1 17.1C15.6 16.8 16.3 16.7 16.8 16.9L18 17.4C18.1 17.4 18.2 17.4 18.3 17.4C18.4 17.4 18.5 17.3 18.5 17.2L19.8 15C19.9 14.8 19.9 14.6 19.7 14.5L18.7 13.7C18.2 13.3 18 12.7 18 12.1V11.9C18 11.3 18.2 10.7 18.7 10.3L19.7 9.50001C19.8 9.40001 19.8 9.40001 19.8 9.30001C19.8 9.20001 19.8 9.10001 19.8 9.00001L18.5 6.80001C18.5 6.70001 18.4 6.70001 18.3 6.60001C18.2 6.60001 18.1 6.60001 18 6.60001L16.8 7.00001C16.2 7.20001 15.6 7.10001 15.1 6.80001C15 6.80001 15 6.70001 14.9 6.70001C14.3 6.40001 14 5.90001 13.9 5.30001L13.7 4.00001C13.7 3.80001 13.5 3.70001 13.3 3.70001H10.7C10.5 3.70001 10.4 3.80001 10.3 4.00001L10.1 5.30001C10 5.90001 9.6 6.40001 9.1 6.70001L8.9 6.90001C8.4 7.20001 7.7 7.30001 7.2 7.00001L6 6.60001C5.9 6.60001 5.8 6.60001 5.7 6.60001C5.6 6.60001 5.5 6.70001 5.5 6.80001L4.2 9.00001C4.2 9.10001 4.1 9.20001 4.2 9.30001C4.2 9.40001 4.3 9.50001 4.3 9.50001L5.3 10.3C5.8 10.7 6 11.3 6 11.9V12.1C6 12.7 5.8 13.3 5.3 13.7L4.3 14.5C4.2 14.6 4.2 14.6 4.2 14.7C4.2 14.8 4.2 14.9 4.2 15L5.5 17.2C5.5 17.3 5.6 17.3 5.7 17.4C5.8 17.4 5.9 17.4 6 17.4L7.2 17C7.4 16.9 7.6 16.8 7.8 16.8Z"></path>
<path fill-rule="evenodd" clip-rule="evenodd" d="M12 9.80001C11.4 9.80001 10.8 10 10.4 10.5C9.99995 10.9 9.69995 11.5 9.69995 12.1C9.69995 12.7 9.89995 13.3 10.4 13.7C10.8 14.1 11.4 14.4 12 14.4C12.6 14.4 13.2 14.2 13.6 13.7C14 13.3 14.3 12.7 14.3 12.1C14.3 11.5 14.1 10.9 13.6 10.5C13.2 10 12.6 9.80001 12 9.80001ZM9.29995 9.30001C10.1 8.60001 11 8.20001 12 8.20001C13 8.20001 13.9 8.60001 14.7 9.30001C15.4 10 15.8 11 15.8 12C15.8 13 15.4 13.9 14.7 14.7C14 15.4 13 15.8 12 15.8C11 15.8 10.1 15.4 9.29995 14.7C8.59995 13.9 8.19995 13 8.19995 12C8.19995 11 8.59995 10.1 9.29995 9.30001Z"></path>
</symbol>
<symbol viewBox="0 0 24 24" id="group">
<path fill-rule="evenodd" clip-rule="evenodd" d="M3.375 6.75C3.16821 6.75 3 6.91821 3 7.125V10.875C3 10.9745 3.03951 11.0698 3.10984 11.1402C3.18016 11.2105 3.27554 11.25 3.375 11.25H9.375C9.58179 11.25 9.75 11.0818 9.75 10.875V7.125C9.75 6.91821 9.58179 6.75 9.375 6.75H3.375ZM1.5 7.125C1.5 6.08979 2.33979 5.25 3.375 5.25H9.375C10.4102 5.25 11.25 6.08979 11.25 7.125V10.875C11.25 11.9102 10.4102 12.75 9.375 12.75H3.375C2.87772 12.75 2.40081 12.5525 2.04917 12.2008C1.69754 11.8492 1.5 11.3723 1.5 10.875V7.125ZM15.375 8.25C15.1682 8.25 15 8.41821 15 8.625V16.875C15 16.9745 15.0395 17.0698 15.1098 17.1402C15.1802 17.2105 15.2755 17.25 15.375 17.25H20.625C20.8318 17.25 21 17.0818 21 16.875V8.625C21 8.41821 20.8318 8.25 20.625 8.25H15.375ZM13.5 8.625C13.5 7.58979 14.3398 6.75 15.375 6.75H20.625C21.6602 6.75 22.5 7.58979 22.5 8.625V16.875C22.5 17.9102 21.6602 18.75 20.625 18.75H15.375C14.8777 18.75 14.4008 18.5525 14.0492 18.2008C13.6975 17.8492 13.5 17.3723 13.5 16.875V8.625ZM4.875 15.75C4.66821 15.75 4.5 15.9182 4.5 16.125V18.375C4.5 18.4745 4.53951 18.5698 4.60984 18.6402C4.68016 18.7105 4.77554 18.75 4.875 18.75H10.125C10.3318 18.75 10.5 18.5818 10.5 18.375V16.125C10.5 15.9182 10.3318 15.75 10.125 15.75H4.875ZM3 16.125C3 15.0898 3.83979 14.25 4.875 14.25H10.125C11.1602 14.25 12 15.0898 12 16.125V18.375C12 19.4102 11.1602 20.25 10.125 20.25H4.875C4.37772 20.25 3.90081 20.0525 3.54917 19.7008C3.19754 19.3492 3 18.8723 3 18.375V16.125Z"></path>
</symbol>
<symbol viewBox="0 0 24 24" id="help">
<path fill-rule="evenodd" clip-rule="evenodd" d="M12 3.75C9.81196 3.75 7.71354 4.61919 6.16637 6.16637C4.61919 7.71354 3.75 9.81196 3.75 12C3.75 13.0834 3.96339 14.1562 4.37799 15.1571C4.79259 16.1581 5.40029 17.0675 6.16637 17.8336C6.93245 18.5997 7.84193 19.2074 8.84286 19.622C9.8438 20.0366 10.9166 20.25 12 20.25C13.0834 20.25 14.1562 20.0366 15.1571 19.622C16.1581 19.2074 17.0675 18.5997 17.8336 17.8336C18.5997 17.0675 19.2074 16.1581 19.622 15.1571C20.0366 14.1562 20.25 13.0834 20.25 12C20.25 9.81196 19.3808 7.71354 17.8336 6.16637C16.2865 4.61919 14.188 3.75 12 3.75ZM5.10571 5.10571C6.93419 3.27723 9.41414 2.25 12 2.25C14.5859 2.25 17.0658 3.27723 18.8943 5.10571C20.7228 6.93419 21.75 9.41414 21.75 12C21.75 13.2804 21.4978 14.5482 21.0078 15.7312C20.5178 16.9141 19.7997 17.9889 18.8943 18.8943C17.9889 19.7997 16.9141 20.5178 15.7312 21.0078C14.5482 21.4978 13.2804 21.75 12 21.75C10.7196 21.75 9.45176 21.4978 8.26884 21.0078C7.08591 20.5178 6.01108 19.7997 5.10571 18.8943C4.20034 17.9889 3.48216 16.9141 2.99217 15.7312C2.50219 14.5482 2.25 13.2804 2.25 12C2.25 9.41414 3.27723 6.93419 5.10571 5.10571ZM14.6147 6.95445C13.1609 5.68211 10.8387 5.68218 9.38502 6.95466C9.07334 7.22748 9.04184 7.7013 9.31466 8.01298C9.58747 8.32466 10.0613 8.35616 10.373 8.08334C11.2612 7.30589 12.7388 7.30589 13.627 8.08334L13.6273 8.08355C14.4576 8.80973 14.4576 9.94027 13.6273 10.6664L13.625 10.6685C13.4771 10.7988 13.3082 10.909 13.1246 10.9977L13.124 10.9981C12.3093 11.3928 11.251 12.2218 11.251 13.5V14.25C11.251 14.6642 11.5868 15 12.001 15C12.4152 15 12.751 14.6642 12.751 14.25V13.5C12.751 13.1222 13.1027 12.6752 13.778 12.3479C14.0737 12.205 14.3581 12.0216 14.6158 11.7946C16.1284 10.4707 16.1281 8.27797 14.6147 6.95445ZM11.25 17.25C11.25 16.8358 11.5858 16.5 12 16.5H12.008C12.4222 16.5 12.758 16.8358 12.758 17.25V17.258C12.758 17.6722 12.4222 18.008 12.008 18.008H12C11.5858 18.008 11.25 17.6722 11.25 17.258V17.25Z"></path>
</symbol>
<symbol viewBox="0 0 24 24" id="house">
<path fill-rule="evenodd" clip-rule="evenodd" d="M11.7337 3.57593C11.7337 3.576 11.7338 3.57585 11.7337 3.57593L5.25 10.0604V19.875C5.25 20.0818 5.41821 20.25 5.625 20.25H9V16.125C9 15.0898 9.83979 14.25 10.875 14.25H13.125C14.1602 14.25 15 15.0898 15 16.125V20.25H18.375C18.5818 20.25 18.75 20.0818 18.75 19.875V10.0607L12.2647 3.57532C12.119 3.42962 11.8813 3.42891 11.7337 3.57593ZM20.03 9.2193L13.3253 2.51466C12.5931 1.78244 11.4067 1.7833 10.6743 2.51406L1.71964 11.4697C1.42676 11.7626 1.42679 12.2375 1.7197 12.5304C2.01261 12.8232 2.48748 12.8232 2.78036 12.5303L3.75 11.5605V19.875C3.75 20.9102 4.58979 21.75 5.625 21.75H18.375C19.4102 21.75 20.25 20.9102 20.25 19.875V11.5607L21.2197 12.5303C21.5126 12.8232 21.9874 12.8232 22.2803 12.5303C22.5732 12.2374 22.5732 11.7626 22.2803 11.4697L20.0307 9.22002C20.0305 9.21978 20.0302 9.21954 20.03 9.2193ZM13.5 20.25H10.5V16.125C10.5 15.9182 10.6682 15.75 10.875 15.75H13.125C13.3318 15.75 13.5 15.9182 13.5 16.125V20.25Z"></path>
</symbol>
<symbol viewBox="0 0 24 24" id="image">
<path fill-rule="evenodd" clip-rule="evenodd" d="M2.15901 4.40901C2.58097 3.98705 3.15326 3.75 3.75 3.75H20.25C20.8467 3.75 21.419 3.98705 21.841 4.40901C22.2629 4.83097 22.5 5.40326 22.5 6V18C22.5 18.5967 22.2629 19.169 21.841 19.591C21.419 20.0129 20.8467 20.25 20.25 20.25H3.75C3.15326 20.25 2.58097 20.0129 2.15901 19.591C1.73705 19.169 1.5 18.5967 1.5 18V6C1.5 5.40326 1.73705 4.83097 2.15901 4.40901ZM3 16.0607V18C3 18.1989 3.07902 18.3897 3.21967 18.5303C3.36032 18.671 3.55109 18.75 3.75 18.75H20.25C20.4489 18.75 20.6397 18.671 20.7803 18.5303C20.921 18.3897 21 18.1989 21 18V16.0607L18.3107 13.3713C18.1714 13.232 18.006 13.1215 17.824 13.0462C17.642 12.9708 17.447 12.932 17.25 12.932C17.053 12.932 16.858 12.9708 16.676 13.0462C16.494 13.1215 16.3286 13.232 16.1893 13.3713L15.3107 14.25L16.2803 15.2197C16.5732 15.5126 16.5732 15.9874 16.2803 16.2803C15.9874 16.5732 15.5126 16.5732 15.2197 16.2803L10.0607 11.1213C9.92138 10.982 9.75602 10.8715 9.57403 10.7962C9.39204 10.7208 9.19698 10.682 9 10.682C8.80302 10.682 8.60796 10.7208 8.42597 10.7962C8.24398 10.8715 8.07862 10.982 7.93933 11.1213L3 16.0607ZM14.25 13.1893L15.1287 12.3107C15.4072 12.0321 15.738 11.8111 16.1019 11.6603C16.4659 11.5096 16.856 11.432 17.25 11.432C17.644 11.432 18.0341 11.5096 18.3981 11.6603C18.762 11.8111 19.0928 12.0321 19.3713 12.3107L21 13.9393V6C21 5.80109 20.921 5.61032 20.7803 5.46967C20.6397 5.32902 20.4489 5.25 20.25 5.25H3.75C3.55109 5.25 3.36032 5.32902 3.21967 5.46967C3.07902 5.61032 3 5.80109 3 6V13.9393L6.87867 10.0607C6.87867 10.0607 6.87867 10.0607 6.87867 10.0607C7.15724 9.78209 7.48796 9.56111 7.85194 9.41035C8.21592 9.25958 8.60603 9.18198 9 9.18198C9.39397 9.18198 9.78408 9.25958 10.1481 9.41035C10.512 9.56111 10.8428 9.78209 11.1213 10.0607L14.25 13.1893ZM13.4545 7.4545C13.6655 7.24353 13.9516 7.125 14.25 7.125C14.5484 7.125 14.8345 7.24353 15.0455 7.4545C15.2565 7.66548 15.375 7.95163 15.375 8.25C15.375 8.54837 15.2565 8.83452 15.0455 9.0455C14.8345 9.25648 14.5484 9.375 14.25 9.375C13.9516 9.375 13.6655 9.25648 13.4545 9.0455C13.2435 8.83452 13.125 8.54837 13.125 8.25C13.125 7.95163 13.2435 7.66548 13.4545 7.4545Z"></path>
</symbol>
<symbol viewBox="0 0 24 24" id="lock">
<path fill-rule="evenodd" clip-rule="evenodd" d="M8.28769 3.03769C9.27226 2.05312 10.6076 1.5 12 1.5C13.3924 1.5 14.7277 2.05312 15.7123 3.03769C16.6969 4.02226 17.25 5.35761 17.25 6.75V9.75C18.0456 9.75 18.8087 10.0661 19.3713 10.6287C19.9339 11.1913 20.25 11.9544 20.25 12.75V19.5C20.25 20.2957 19.9339 21.0587 19.3713 21.6213C18.8087 22.1839 18.0456 22.5 17.25 22.5H6.75C5.95435 22.5 5.19129 22.1839 4.62868 21.6213C4.06607 21.0587 3.75 20.2957 3.75 19.5V12.75C3.75 11.9544 4.06607 11.1913 4.62868 10.6287C5.19129 10.0661 5.95435 9.75 6.75 9.75V6.75C6.75 5.35761 7.30312 4.02226 8.28769 3.03769ZM6.75 11.25C6.35218 11.25 5.97064 11.408 5.68934 11.6893C5.40804 11.9706 5.25 12.3522 5.25 12.75V19.5C5.25 19.8978 5.40804 20.2794 5.68934 20.5607C5.97064 20.842 6.35218 21 6.75 21H17.25C17.6478 21 18.0294 20.842 18.3107 20.5607C18.592 20.2794 18.75 19.8978 18.75 19.5V12.75C18.75 12.3522 18.592 11.9706 18.3107 11.6893C18.0294 11.408 17.6478 11.25 17.25 11.25H6.75ZM15.75 9.75H8.25V6.75C8.25 5.75544 8.64509 4.80161 9.34835 4.09835C10.0516 3.39509 11.0054 3 12 3C12.9946 3 13.9484 3.39509 14.6517 4.09835C15.3549 4.80161 15.75 5.75544 15.75 6.75V9.75Z"></path>
</symbol>
<symbol viewBox="0 0 24 24" id="logout">
<path fill-rule="evenodd" clip-rule="evenodd" d="M10.5 3.75C10.1022 3.75 9.72064 3.90804 9.43934 4.18934C9.15804 4.47064 9 4.85218 9 5.25V9C9 9.41421 8.66421 9.75 8.25 9.75C7.83579 9.75 7.5 9.41421 7.5 9V5.25C7.5 4.45435 7.81607 3.69129 8.37868 3.12868C8.94129 2.56607 9.70435 2.25 10.5 2.25H16.5C17.2956 2.25 18.0587 2.56607 18.6213 3.12868C19.1839 3.69129 19.5 4.45435 19.5 5.25V18.75C19.5 19.5457 19.1839 20.3087 18.6213 20.8713C18.0587 21.4339 17.2956 21.75 16.5 21.75H10.5C9.70435 21.75 8.94129 21.4339 8.37868 20.8713C7.81607 20.3087 7.5 19.5457 7.5 18.75V15C7.5 14.5858 7.83579 14.25 8.25 14.25C8.66421 14.25 9 14.5858 9 15V18.75C9 19.1478 9.15804 19.5294 9.43934 19.8107C9.72064 20.092 10.1022 20.25 10.5 20.25H16.5C16.8978 20.25 17.2794 20.092 17.5607 19.8107C17.842 19.5294 18 19.1478 18 18.75V5.25C18 4.85218 17.842 4.47064 17.5607 4.18934C17.2794 3.90804 16.8978 3.75 16.5 3.75H10.5ZM5.78033 8.46967C6.07322 8.76256 6.07322 9.23744 5.78033 9.53033L4.06066 11.25H15C15.4142 11.25 15.75 11.5858 15.75 12C15.75 12.4142 15.4142 12.75 15 12.75H4.06066L5.78033 14.4697C6.07322 14.7626 6.07322 15.2374 5.78033 15.5303C5.48744 15.8232 5.01256 15.8232 4.71967 15.5303L1.71967 12.5303C1.42678 12.2374 1.42678 11.7626 1.71967 11.4697L4.71967 8.46967C5.01256 8.17678 5.48744 8.17678 5.78033 8.46967Z"></path>
</symbol>
<symbol viewBox="0 0 24 24" id="money">
<path fill-rule="evenodd" clip-rule="evenodd" d="M3.375 3.75C2.33979 3.75 1.5 4.58979 1.5 5.625V15.375C1.5 15.8723 1.69754 16.3492 2.04917 16.7008C2.40081 17.0525 2.87772 17.25 3.375 17.25H20.625C21.6602 17.25 22.5 16.4102 22.5 15.375V5.625C22.5 4.58979 21.6602 3.75 20.625 3.75H3.375ZM4.5 5.25C4.5 5.64782 4.34197 6.02936 4.06066 6.31066C3.77936 6.59197 3.39782 6.75 3 6.75V14.25C3.39783 14.25 3.77936 14.408 4.06066 14.6893C4.34196 14.9706 4.5 15.3522 4.5 15.75H19.5C19.5 15.3522 19.658 14.9706 19.9393 14.6893C20.2206 14.408 20.6022 14.25 21 14.25V6.75C20.1718 6.75 19.5 6.07821 19.5 5.25H4.5ZM12 8.25C11.4033 8.25 10.831 8.48705 10.409 8.90901C9.98705 9.33097 9.75 9.90326 9.75 10.5C9.75 11.0967 9.98705 11.669 10.409 12.091C10.831 12.5129 11.4033 12.75 12 12.75C12.5967 12.75 13.169 12.5129 13.591 12.091C14.0129 11.669 14.25 11.0967 14.25 10.5C14.25 9.90326 14.0129 9.33097 13.591 8.90901C13.169 8.48705 12.5967 8.25 12 8.25ZM9.34835 7.84835C10.0516 7.14509 11.0054 6.75 12 6.75C12.9946 6.75 13.9484 7.14509 14.6517 7.84835C15.3549 8.55161 15.75 9.50544 15.75 10.5C15.75 11.4946 15.3549 12.4484 14.6517 13.1517C13.9484 13.8549 12.9946 14.25 12 14.25C11.0054 14.25 10.0516 13.8549 9.34835 13.1517C8.64509 12.4484 8.25 11.4946 8.25 10.5C8.25 9.50544 8.64509 8.55161 9.34835 7.84835ZM5.25 10.5C5.25 10.0858 5.58579 9.75 6 9.75H6.008C6.42221 9.75 6.758 10.0858 6.758 10.5V10.508C6.758 10.9222 6.42221 11.258 6.008 11.258H6C5.58579 11.258 5.25 10.9222 5.25 10.508V10.5ZM17.25 10.5C17.25 10.0858 17.5858 9.75 18 9.75H18.008C18.4222 9.75 18.758 10.0858 18.758 10.5V10.508C18.758 10.9222 18.4222 11.258 18.008 11.258H18C17.5858 11.258 17.25 10.9222 17.25 10.508V10.5ZM17.8499 21.5746C12.7654 20.1934 7.51944 19.4957 2.25061 19.5C1.8364 19.5003 1.50034 19.1648 1.5 18.7506C1.49966 18.3364 1.83518 18.0003 2.24939 18C7.65161 17.9956 13.0303 18.711 18.2436 20.1272C18.507 20.199 18.75 20.0007 18.75 19.755V18.75C18.75 18.3358 19.0858 18 19.5 18C19.9142 18 20.25 18.3358 20.25 18.75V19.755C20.25 21.0173 19.0405 21.8989 17.8499 21.5746ZM17.8499 21.5746C17.8498 21.5746 17.8501 21.5747 17.8499 21.5746Z"></path>
</symbol>
<symbol viewBox="0 0 24 24" id="moon">
<path d="M12.8 21.8C6.99995 21.8 2.19995 17 2.19995 11.2C2.19995 9.1 2.79995 7.1 3.99995 5.4C5.19995 3.7 6.79995 2.3 8.69995 1.5C8.99995 1.4 9.29995 1.5 9.49995 1.7C9.69995 1.9 9.79995 2.2 9.69995 2.5C9.19995 3.6 8.99995 4.8 8.99995 6C8.99995 11 13 15 18 15C19.2 15 20.4 14.8 21.5 14.3C21.8 14.2 22.0999 14.2 22.2999 14.5C22.4999 14.7 22.6 15 22.5 15.3C21.7 17.2 20.4 18.8 18.6 20C16.8 21.1 14.8 21.8 12.8 21.8ZM7.69995 3.8C6.69995 4.5 5.89995 5.3 5.19995 6.3C4.19995 7.8 3.69995 9.5 3.69995 11.3C3.69995 16.3 7.69995 20.3 12.7 20.3C14.5 20.3 16.2 19.8 17.7 18.8C18.7 18.1 19.5 17.3 20.2 16.3C19.5 16.5 18.7 16.5 18 16.5C12.2 16.5 7.49995 11.8 7.49995 6C7.49995 5.2 7.59995 4.5 7.69995 3.8Z"></path>
</symbol>
<symbol viewBox="0 0 24 24" id="pencil">
<path fill-rule="evenodd" clip-rule="evenodd" d="M19.875 2.99976C19.5766 2.99976 19.2904 3.11831 19.0793 3.32933L17.9225 4.48685L19.5135 6.07784L20.6707 4.92067C20.8817 4.70965 21.0003 4.42344 21.0003 4.125C21.0003 3.82657 20.8817 3.54036 20.6707 3.32933C20.4597 3.11831 20.1735 2.99976 19.875 2.99976ZM18.4529 7.1385L16.8625 5.54812L4.7105 17.6982C4.2703 18.1387 3.94654 18.6821 3.76884 19.279L3.36473 20.6353L4.72086 20.2312C5.31776 20.0535 5.86115 19.7299 6.30169 19.2897C6.30174 19.2896 6.30164 19.2897 6.30169 19.2897L18.4529 7.1385ZM16.309 3.98037C16.3163 3.9724 16.3238 3.96455 16.3315 3.95683L18.0185 2.26883C18.5109 1.7765 19.1788 1.49976 19.875 1.49976C20.5713 1.49976 21.239 1.77634 21.7313 2.26867C22.2237 2.761 22.5003 3.42874 22.5003 4.125C22.5003 4.82126 22.2237 5.489 21.7313 5.98133L7.36235 20.3503C6.74556 20.9668 5.98479 21.42 5.14903 21.6688L2.46418 22.4688C2.20024 22.5474 1.91443 22.4751 1.71969 22.2803C1.52495 22.0856 1.4526 21.7998 1.53125 21.5358L2.3312 18.851C2.58002 18.0152 3.03311 17.2546 3.64953 16.6378L16.309 3.98037Z"></path>
</symbol>
<symbol viewBox="0 0 24 24" id="search">
<path fill-rule="evenodd" clip-rule="evenodd" d="M4.66572 4.66567C6.21295 3.11845 8.31144 2.24922 10.4995 2.24922C12.6877 2.24922 14.7862 3.11845 16.3334 4.66567C17.8806 6.2129 18.7498 8.31139 18.7498 10.4995C18.7498 12.4362 18.0689 14.3027 16.8396 15.7789L21.5304 20.4697C21.8233 20.7626 21.8233 21.2374 21.5304 21.5303C21.2375 21.8232 20.7626 21.8232 20.4697 21.5303L15.7789 16.8395C14.3027 18.0688 12.4362 18.7498 10.4995 18.7498C8.31144 18.7498 6.21295 17.8806 4.66572 16.3333C3.11849 14.7861 2.24927 12.6876 2.24927 10.4995C2.24927 8.31139 3.11849 6.2129 4.66572 4.66567ZM10.4995 3.74922C8.70926 3.74922 6.9923 4.46041 5.72638 5.72633C4.46046 6.99226 3.74927 8.70922 3.74927 10.4995C3.74927 12.2898 4.46046 14.0068 5.72638 15.2727C6.9923 16.5386 8.70926 17.2498 10.4995 17.2498C12.2898 17.2498 14.0068 16.5386 15.2727 15.2727C16.5386 14.0067 17.2498 12.2898 17.2498 10.4995C17.2498 8.70922 16.5386 6.99226 15.2727 5.72633C14.0068 4.46041 12.2898 3.74922 10.4995 3.74922Z"></path>
</symbol>
<symbol viewBox="0 0 24 24" id="send">
<path fill-rule="evenodd" clip-rule="evenodd" d="M2.73452 2.5988C2.92797 2.40232 3.21363 2.32784 3.47839 2.40484C10.0932 4.32869 16.331 7.36781 21.923 11.3912C22.1188 11.5321 22.2349 11.7587 22.2349 12C22.2349 12.2413 22.1188 12.4679 21.923 12.6088C16.3314 16.6321 10.0939 19.6712 3.47941 21.5952C3.21466 21.6722 2.92901 21.5977 2.73555 21.4012C2.54209 21.2048 2.47202 20.918 2.55309 20.6545L5.21525 12L2.55211 3.34559C2.47102 3.08205 2.54106 2.79527 2.73452 2.5988ZM6.55392 12.75L4.40146 19.7475C10.0192 17.9677 15.3394 15.3564 20.1846 12C15.3391 8.64353 10.0186 6.03222 4.40061 4.25254L6.55386 11.25H13.4999C13.9142 11.25 14.2499 11.5858 14.2499 12C14.2499 12.4142 13.9142 12.75 13.4999 12.75H6.55392Z"></path>
</symbol>
<symbol viewBox="0 0 24 24" id="settings">
<path fill-rule="evenodd" clip-rule="evenodd" d="M7.40901 4.40901C7.83097 3.98705 8.40326 3.75 9 3.75C9.59674 3.75 10.169 3.98705 10.591 4.40901C10.8305 4.64856 11.0105 4.93657 11.1213 5.25H20.25C20.6642 5.25 21 5.58579 21 6C21 6.41421 20.6642 6.75 20.25 6.75H11.1213C11.0105 7.06343 10.8305 7.35144 10.591 7.59099C10.169 8.01295 9.59674 8.25 9 8.25C8.40326 8.25 7.83097 8.01295 7.40901 7.59099C7.16946 7.35144 6.9895 7.06343 6.87868 6.75H3.75C3.33579 6.75 3 6.41421 3 6C3 5.58579 3.33579 5.25 3.75 5.25H6.87868C6.9895 4.93657 7.16946 4.64856 7.40901 4.40901ZM9 5.25C8.80109 5.25 8.61032 5.32902 8.46967 5.46967C8.32902 5.61032 8.25 5.80109 8.25 6C8.25 6.19891 8.32902 6.38968 8.46967 6.53033C8.61032 6.67098 8.80109 6.75 9 6.75C9.19891 6.75 9.38968 6.67098 9.53033 6.53033C9.67098 6.38968 9.75 6.19891 9.75 6C9.75 5.80109 9.67098 5.61032 9.53033 5.46967C9.38968 5.32902 9.19891 5.25 9 5.25ZM13.409 10.409C13.831 9.98705 14.4033 9.75 15 9.75C15.5967 9.75 16.169 9.98705 16.591 10.409C16.8305 10.6486 17.0105 10.9366 17.1213 11.25H20.25C20.6642 11.25 21 11.5858 21 12C21 12.4142 20.6642 12.75 20.25 12.75H17.1213C17.0105 13.0634 16.8305 13.3514 16.591 13.591C16.169 14.0129 15.5967 14.25 15 14.25C14.4033 14.25 13.831 14.0129 13.409 13.591C13.1695 13.3514 12.9895 13.0634 12.8787 12.75H3.75C3.33579 12.75 3 12.4142 3 12C3 11.5858 3.33579 11.25 3.75 11.25H12.8787C12.9895 10.9366 13.1695 10.6486 13.409 10.409ZM15 11.25C14.8011 11.25 14.6103 11.329 14.4697 11.4697C14.329 11.6103 14.25 11.8011 14.25 12C14.25 12.1989 14.329 12.3897 14.4697 12.5303C14.6103 12.671 14.8011 12.75 15 12.75C15.1989 12.75 15.3897 12.671 15.5303 12.5303C15.671 12.3897 15.75 12.1989 15.75 12C15.75 11.8011 15.671 11.6103 15.5303 11.4697C15.3897 11.329 15.1989 11.25 15 11.25ZM7.40901 16.409C7.83097 15.9871 8.40326 15.75 9 15.75C9.59674 15.75 10.169 15.9871 10.591 16.409C10.8305 16.6486 11.0105 16.9366 11.1213 17.25H20.25C20.6642 17.25 21 17.5858 21 18C21 18.4142 20.6642 18.75 20.25 18.75H11.1213C11.0105 19.0634 10.8305 19.3514 10.591 19.591C10.169 20.0129 9.59674 20.25 9 20.25C8.40326 20.25 7.83097 20.0129 7.40901 19.591C7.16946 19.3514 6.9895 19.0634 6.87868 18.75H3.75C3.33579 18.75 3 18.4142 3 18C3 17.5858 3.33579 17.25 3.75 17.25H6.87868C6.9895 16.9366 7.16946 16.6486 7.40901 16.409ZM9 17.25C8.80109 17.25 8.61032 17.329 8.46967 17.4697C8.32902 17.6103 8.25 17.8011 8.25 18C8.25 18.1989 8.32902 18.3897 8.46967 18.5303C8.61032 18.671 8.80109 18.75 9 18.75C9.19891 18.75 9.38968 18.671 9.53033 18.5303C9.67098 18.3897 9.75 18.1989 9.75 18C9.75 17.8011 9.67098 17.6103 9.53033 17.4697C9.38968 17.329 9.19891 17.25 9 17.25Z"></path>
</symbol>
<symbol viewBox="0 0 24 24" id="shield">
<path fill-rule="evenodd" clip-rule="evenodd" d="M11.4835 2.17014C11.7727 1.8955 12.2263 1.89524 12.5158 2.16954C14.5319 4.07964 17.2532 5.24899 20.25 5.24899H20.402C20.726 5.24899 21.0133 5.45698 21.1145 5.76472C21.527 7.01936 21.75 8.35939 21.75 9.74999C21.75 15.6925 17.6863 20.6831 12.1869 22.0983C12.0643 22.1299 11.9356 22.1299 11.813 22.0983C6.31373 20.682 2.25 15.6915 2.25 9.74899H3L2.25 9.74959C2.25 9.74939 2.25 9.74919 2.25 9.74899C2.24898 8.39604 2.46346 7.05156 2.88541 5.76609C2.98769 5.45449 3.28055 5.24549 3.60847 5.25006C6.53492 5.29091 9.36128 4.18552 11.4835 2.17014ZM12.0005 3.72172C9.80566 5.58927 7.03907 6.65645 4.15614 6.74514C3.88602 7.72251 3.74918 8.73274 3.75 9.74838L3.75 9.74899C3.75 14.9229 7.24249 19.2822 12.0001 20.5958C16.7575 19.2832 20.25 14.924 20.25 9.74999C20.25 8.7075 20.1083 7.69912 19.8437 6.74264C16.8565 6.64915 14.1274 5.52854 12.0005 3.72172ZM15.4359 9.13969C15.773 9.38045 15.8511 9.84886 15.6103 10.1859L11.8603 15.4359C11.7322 15.6153 11.5316 15.7292 11.3119 15.7474C11.0922 15.7656 10.8756 15.6862 10.7197 15.5303L8.46967 13.2803C8.17678 12.9874 8.17678 12.5126 8.46967 12.2197C8.76257 11.9268 9.23744 11.9268 9.53033 12.2197L11.1543 13.8436L14.3897 9.31406C14.6305 8.977 15.0989 8.89893 15.4359 9.13969Z"></path>
</symbol>
<symbol viewBox="0 0 24 24" id="speech">
<path d="M8.20002 21.8C8.10002 21.8 8.00002 21.8 7.90002 21.7C7.60002 21.6 7.40002 21.3 7.40002 21V17C6.50002 16.9 5.60002 16.8 4.70002 16.7C2.80002 16.4 1.40002 14.7 1.40002 12.7V6.70001C1.40002 4.70001 2.80002 3.00001 4.70002 2.70001C7.20002 2.40001 9.60002 2.20001 12 2.20001C14.4 2.20001 16.8 2.40001 19.1 2.70001C21 3.00001 22.4 4.70001 22.4 6.70001V12.7C22.4 14.7 21 16.4 19.1 16.7C17.2 17 15.3 17.1 13.3 17.2C13.1 17.2 12.9 17.3 12.8 17.4L8.70002 21.5C8.60002 21.7 8.40002 21.8 8.20002 21.8ZM12 3.80001C9.70002 3.80001 7.30002 4.00001 5.00002 4.30001C3.90002 4.40001 3.00002 5.50001 3.00002 6.70001V12.7C3.00002 14 3.90002 15 5.10002 15.2C6.20002 15.4 7.20002 15.5 8.30002 15.6C8.70002 15.6 9.00002 16 9.00002 16.4V19.2L11.8 16.4C12.2 16 12.8 15.8 13.3 15.7C15.2 15.6 17 15.5 18.9 15.2C20.1 15 21 14 21 12.7V6.70001C21 5.40001 20.1 4.40001 18.9 4.20001C16.7 3.90001 14.3 3.80001 12 3.80001Z"></path>
</symbol>
<symbol viewBox="0 0 24 24" id="sun">
<path fill-rule="evenodd" clip-rule="evenodd" d="M12 2.25C12.4142 2.25 12.75 2.58579 12.75 3V5.25C12.75 5.66421 12.4142 6 12 6C11.5858 6 11.25 5.66421 11.25 5.25V3C11.25 2.58579 11.5858 2.25 12 2.25ZM5.10567 5.10567C5.39856 4.81278 5.87344 4.81278 6.16633 5.10567L7.75733 6.69667C8.05022 6.98956 8.05022 7.46444 7.75733 7.75733C7.46444 8.05022 6.98956 8.05022 6.69667 7.75733L5.10567 6.16633C4.81278 5.87344 4.81278 5.39856 5.10567 5.10567ZM18.8943 5.10567C19.1872 5.39856 19.1872 5.87344 18.8943 6.16633L17.3033 7.75733C17.0104 8.05022 16.5356 8.05022 16.2427 7.75733C15.9498 7.46444 15.9498 6.98956 16.2427 6.69667L17.8337 5.10567C18.1266 4.81278 18.6014 4.81278 18.8943 5.10567ZM12 9C11.2044 9 10.4413 9.31607 9.87868 9.87868C9.31607 10.4413 9 11.2044 9 12C9 12.7956 9.31607 13.5587 9.87868 14.1213C10.4413 14.6839 11.2044 15 12 15C12.7956 15 13.5587 14.6839 14.1213 14.1213C14.6839 13.5587 15 12.7956 15 12C15 11.2044 14.6839 10.4413 14.1213 9.87868C13.5587 9.31607 12.7956 9 12 9ZM8.81802 8.81802C9.66193 7.97411 10.8065 7.5 12 7.5C13.1935 7.5 14.3381 7.97411 15.182 8.81802C16.0259 9.66193 16.5 10.8065 16.5 12C16.5 13.1935 16.0259 14.3381 15.182 15.182C14.3381 16.0259 13.1935 16.5 12 16.5C10.8065 16.5 9.66193 16.0259 8.81802 15.182C7.97411 14.3381 7.5 13.1935 7.5 12C7.5 10.8065 7.97411 9.66193 8.81802 8.81802ZM2.25 12C2.25 11.5858 2.58579 11.25 3 11.25H5.25C5.66421 11.25 6 11.5858 6 12C6 12.4142 5.66421 12.75 5.25 12.75H3C2.58579 12.75 2.25 12.4142 2.25 12ZM18 12C18 11.5858 18.3358 11.25 18.75 11.25H21C21.4142 11.25 21.75 11.5858 21.75 12C21.75 12.4142 21.4142 12.75 21 12.75H18.75C18.3358 12.75 18 12.4142 18 12ZM7.75733 16.2427C8.05022 16.5356 8.05022 17.0104 7.75733 17.3033L6.16633 18.8943C5.87344 19.1872 5.39856 19.1872 5.10567 18.8943C4.81278 18.6014 4.81278 18.1266 5.10567 17.8337L6.69667 16.2427C6.98956 15.9498 7.46444 15.9498 7.75733 16.2427ZM16.2427 16.2427C16.5356 15.9498 17.0104 15.9498 17.3033 16.2427L18.8943 17.8337C19.1872 18.1266 19.1872 18.6014 18.8943 18.8943C18.6014 19.1872 18.1266 19.1872 17.8337 18.8943L16.2427 17.3033C15.9498 17.0104 15.9498 16.5356 16.2427 16.2427ZM12 18C12.4142 18 12.75 18.3358 12.75 18.75V21C12.75 21.4142 12.4142 21.75 12 21.75C11.5858 21.75 11.25 21.4142 11.25 21V18.75C11.25 18.3358 11.5858 18 12 18Z"></path>
</symbol>
<symbol viewBox="0 0 24 24" id="threeDots">
<path fill-rule="evenodd" clip-rule="evenodd" d="M4.93934 10.9393C5.22064 10.658 5.60217 10.5 6 10.5C6.39783 10.5 6.77936 10.658 7.06066 10.9393C7.34196 11.2206 7.5 11.6022 7.5 12C7.5 12.3978 7.34196 12.7794 7.06066 13.0607C6.77936 13.342 6.39783 13.5 6 13.5C5.60217 13.5 5.22064 13.342 4.93934 13.0607C4.65804 12.7794 4.5 12.3978 4.5 12C4.5 11.6022 4.65804 11.2206 4.93934 10.9393ZM10.9393 10.9393C11.2206 10.658 11.6022 10.5 12 10.5C12.3978 10.5 12.7794 10.658 13.0607 10.9393C13.342 11.2206 13.5 11.6022 13.5 12C13.5 12.3978 13.342 12.7794 13.0607 13.0607C12.7794 13.342 12.3978 13.5 12 13.5C11.6022 13.5 11.2206 13.342 10.9393 13.0607C10.658 12.7794 10.5 12.3978 10.5 12C10.5 11.6022 10.658 11.2206 10.9393 10.9393ZM16.9393 10.9393C17.2206 10.658 17.6022 10.5 18 10.5C18.3978 10.5 18.7794 10.658 19.0607 10.9393C19.342 11.2206 19.5 11.6022 19.5 12C19.5 12.3978 19.342 12.7794 19.0607 13.0607C18.7794 13.342 18.3978 13.5 18 13.5C17.6022 13.5 17.2206 13.342 16.9393 13.0607C16.658 12.7794 16.5 12.3978 16.5 12C16.5 11.6022 16.658 11.2206 16.9393 10.9393Z"></path>
</symbol>
<symbol viewBox="0 0 24 24" id="trash">
<path d="M15.9 22.5H8.09997C7.29997 22.5 6.59997 22.2 6.09997 21.7C5.49997 21.2 5.19997 20.5 5.09997 19.7L4.09997 6.6C3.99997 6.6 3.99997 6.6 3.89997 6.6C3.49997 6.8 3.09997 6.5 2.99997 6.1C2.89997 5.7 3.19997 5.3 3.59997 5.2C3.99997 5.2 4.29997 5.1 4.69997 5C5.59997 4.9 6.59997 4.7 7.49997 4.7V4.5C7.49997 2.9 8.69997 1.6 10.3 1.5C11.4 1.5 12.5 1.5 13.7 1.5C15.3 1.5 16.5 2.8 16.5 4.5V4.7C17.4 4.8 18.4 4.9 19.3 5C19.6 5.1 20 5.1 20.3 5.2C20.7 5.3 21 5.7 20.9 6.1C20.8 6.5 20.4 6.8 20 6.7C19.9 6.7 19.9 6.7 19.8 6.7L18.8 19.8C18.7 20.6 18.4 21.3 17.8 21.8C17.4 22.2 16.7 22.5 15.9 22.5ZM5.59997 6.4L6.59997 19.6C6.59997 20 6.79997 20.3 7.09997 20.6C7.39997 20.9 7.69997 21 8.09997 21H15.9C16.3 21 16.6 20.9 16.9 20.6C17.2 20.3 17.3 20 17.4 19.6L18.4 6.4C17.5 6.3 16.6 6.2 15.7 6.1C13.2 6 10.8 6 8.29997 6.1C7.39997 6.2 6.49997 6.3 5.59997 6.4ZM12 4.5C13 4.5 14 4.5 15 4.6V4.5C15 3.7 14.4 3 13.6 3C12.5 3 11.4 3 10.3 3C9.59997 3 8.99997 3.7 8.99997 4.5V4.6C9.99997 4.5 11 4.5 12 4.5ZM14.4 18.8C14 18.8 13.6 18.4 13.6 18L14 9C14 8.6 14.3 8.3 14.7 8.3C15.1 8.3 15.4 8.7 15.4 9.1L15.1 18.1C15.1 18.4 14.8 18.8 14.4 18.8ZM9.59997 18.8C9.19997 18.8 8.89997 18.5 8.89997 18.1L8.49997 9C8.49997 8.6 8.79997 8.2 9.19997 8.2C9.59997 8.2 9.99997 8.6 9.99997 9L10.3 18C10.4 18.4 9.99997 18.7 9.59997 18.8Z"></path>
</symbol>
<symbol viewBox="0 0 24 24" id="user">
<path fill-rule="evenodd" clip-rule="evenodd" d="M12 3C11.2043 3 10.4413 3.31607 9.87866 3.87868C9.31605 4.44129 8.99998 5.20435 8.99998 6C8.99998 6.79565 9.31605 7.55871 9.87866 8.12132C10.4413 8.68393 11.2043 9 12 9C12.7956 9 13.5587 8.68393 14.1213 8.12132C14.6839 7.55871 15 6.79565 15 6C15 5.20435 14.6839 4.44129 14.1213 3.87868C13.5587 3.31607 12.7956 3 12 3ZM8.818 2.81802C9.66191 1.97411 10.8065 1.5 12 1.5C13.1935 1.5 14.338 1.97411 15.182 2.81802C16.0259 3.66193 16.5 4.80653 16.5 6C16.5 7.19347 16.0259 8.33807 15.182 9.18198C14.338 10.0259 13.1935 10.5 12 10.5C10.8065 10.5 9.66191 10.0259 8.818 9.18198C7.97408 8.33807 7.49998 7.19347 7.49998 6C7.49998 4.80653 7.97408 3.66193 8.818 2.81802ZM12 13.4905C10.2289 13.4905 8.52869 14.1866 7.26614 15.4287C6.12051 16.5558 5.41849 18.0504 5.27667 19.6406C7.34198 20.5158 9.61371 21 12 21H12.001C14.3121 21.0031 16.5982 20.5401 18.7233 19.6404C18.5814 18.0503 17.8794 16.5557 16.7338 15.4287C15.4713 14.1866 13.7711 13.4905 12 13.4905ZM6.21417 14.3594C7.7573 12.8413 9.83527 11.9905 12 11.9905C14.1647 11.9905 16.2427 12.8413 17.7858 14.3594C19.3289 15.8775 20.2135 17.9413 20.2489 20.1058C20.2537 20.4034 20.0821 20.6757 19.8116 20.7997C17.3606 21.9236 14.6953 22.5037 11.999 22.5L12 21.75V22.5C11.9996 22.5 11.9993 22.5 11.999 22.5C9.21321 22.4999 6.56701 21.8916 4.18809 20.7996C3.91768 20.6755 3.74622 20.4032 3.75108 20.1058C3.78643 17.9413 4.67105 15.8775 6.21417 14.3594Z"></path>
</symbol>
<symbol viewBox="0 0 24 24" id="xCircle">
<path fill-rule="evenodd" clip-rule="evenodd" d="M12 3.75C9.81196 3.75 7.71354 4.61919 6.16637 6.16637C4.61919 7.71354 3.75 9.81196 3.75 12C3.75 13.0834 3.96339 14.1562 4.37799 15.1571C4.79259 16.1581 5.40029 17.0675 6.16637 17.8336C6.93245 18.5997 7.84193 19.2074 8.84286 19.622C9.8438 20.0366 10.9166 20.25 12 20.25C13.0834 20.25 14.1562 20.0366 15.1571 19.622C16.1581 19.2074 17.0675 18.5997 17.8336 17.8336C18.5997 17.0675 19.2074 16.1581 19.622 15.1571C20.0366 14.1562 20.25 13.0834 20.25 12C20.25 9.81196 19.3808 7.71354 17.8336 6.16637C16.2865 4.61919 14.188 3.75 12 3.75ZM5.10571 5.10571C6.93419 3.27723 9.41414 2.25 12 2.25C14.5859 2.25 17.0658 3.27723 18.8943 5.10571C20.7228 6.93419 21.75 9.41414 21.75 12C21.75 13.2804 21.4978 14.5482 21.0078 15.7312C20.5178 16.9141 19.7997 17.9889 18.8943 18.8943C17.9889 19.7997 16.9141 20.5178 15.7312 21.0078C14.5482 21.4978 13.2804 21.75 12 21.75C10.7196 21.75 9.45176 21.4978 8.26884 21.0078C7.08591 20.5178 6.01108 19.7997 5.10571 18.8943C4.20034 17.9889 3.48216 16.9141 2.99217 15.7312C2.50219 14.5482 2.25 13.2804 2.25 12C2.25 9.41414 3.27723 6.93419 5.10571 5.10571ZM9.21967 9.21967C9.51256 8.92678 9.98744 8.92678 10.2803 9.21967L12 10.9393L13.7197 9.21967C14.0126 8.92678 14.4874 8.92678 14.7803 9.21967C15.0732 9.51256 15.0732 9.98744 14.7803 10.2803L13.0607 12L14.7803 13.7197C15.0732 14.0126 15.0732 14.4874 14.7803 14.7803C14.4874 15.0732 14.0126 15.0732 13.7197 14.7803L12 13.0607L10.2803 14.7803C9.98744 15.0732 9.51256 15.0732 9.21967 14.7803C8.92678 14.4874 8.92678 14.0126 9.21967 13.7197L10.9393 12L9.21967 10.2803C8.92678 9.98744 8.92678 9.51256 9.21967 9.21967Z"></path>
</symbol>
</defs>
</svg>
