<svg width="46" height="48" viewBox="0 0 46 48" fill="none" xmlns="http://www.w3.org/2000/svg">
<path fill-rule="evenodd" clip-rule="evenodd" d="M44.9227 25.2C44.457 23.835 43.5411 20.655 43.0909 19.29C42.6251 17.94 43.0909 14.31 41.259 12.945C39.4271 11.58 36.6793 9.315 35.7634 8.4C34.8475 7.5 35.1114 6.18 33.0156 4.77C30.9353 3.36 27.0698 1.59 25.2379 0.69C24.322 0.24 23.4216 0 22.5057 0C21.5897 0 20.6893 0.24 19.7734 0.69C17.9415 1.59 14.076 3.36 11.9957 4.77C9.89995 6.18 10.1639 7.5 9.24793 8.4C8.33199 9.315 5.5842 11.58 3.75233 12.945C1.92047 14.31 2.38619 17.94 1.92047 19.29C1.47026 20.655 0.55433 23.835 0.0886014 25.2C-0.361603 26.565 1.00453 28.38 1.92047 30.195C2.8364 32.01 5.11847 37.005 6.0344 38.82C6.95033 40.635 9.69813 39.72 11.9957 41.535C14.2778 43.35 17.4758 45.63 19.7734 46.98C20.9067 47.67 21.6984 48 22.5057 48C23.3129 48 24.1047 47.67 25.2379 46.98C27.5355 45.63 30.7335 43.35 33.0156 41.535C35.3132 39.72 38.061 40.635 38.9769 38.82C39.8929 37.005 42.1749 32.01 43.0909 30.195C44.0068 28.38 45.3729 26.565 44.9227 25.2Z" fill="white"/>
<path fill-rule="evenodd" clip-rule="evenodd" d="M34.4134 10.4552L39.909 14.7902C40.1729 15.0002 40.3436 15.3152 40.3436 15.6602C40.3436 16.0052 40.2039 16.3352 39.9555 16.5602L34.2115 21.6452C33.8079 21.9902 33.2335 22.0352 32.7833 21.7352L25.9371 17.1002C25.6266 16.8902 25.4248 16.5302 25.4248 16.1402C25.4248 15.7652 25.6266 15.4202 25.9371 15.2102L33.0472 10.4102C33.4664 10.1252 34.0253 10.1552 34.4289 10.4552H34.4134Z" fill="#BF4722"/>
<path fill-rule="evenodd" clip-rule="evenodd" d="M31.0601 23.805C31.0911 24.165 30.9359 24.51 30.672 24.75L23.2824 31.29C23.0651 31.47 22.8012 31.575 22.5062 31.575C22.2268 31.575 21.9473 31.47 21.73 31.29L14.3404 24.75C14.0765 24.51 13.9368 24.165 13.9523 23.805C13.9834 23.445 14.1697 23.13 14.4646 22.92L21.8697 17.91C22.2578 17.655 22.7701 17.655 23.1738 17.91L30.5788 22.92C30.8738 23.115 31.0601 23.445 31.0756 23.805H31.0601Z" fill="#BF4722"/>
<path fill-rule="evenodd" clip-rule="evenodd" d="M13.4554 6.5701L21.9783 2.4001C22.3043 2.2501 22.6769 2.2501 23.0029 2.4001L31.5568 6.5851C31.9293 6.7651 32.1622 7.1251 32.2088 7.5301C32.2398 7.9351 32.0535 8.3251 31.7275 8.5651L23.1736 14.3551C22.9874 14.4901 22.7545 14.5501 22.5216 14.5501C22.2888 14.5501 22.0714 14.4751 21.8696 14.3551L13.3157 8.5951C12.9742 8.3701 12.7724 7.9651 12.8034 7.5601C12.8345 7.1551 13.0829 6.7801 13.4554 6.6001V6.5701Z" fill="#BF4722"/>
<path fill-rule="evenodd" clip-rule="evenodd" d="M5.13458 14.7752L10.6302 10.4102C11.0338 10.0952 11.5927 10.0802 12.0118 10.3652L19.1064 15.1652C19.4324 15.3752 19.6343 15.7502 19.6343 16.1402C19.6343 16.5302 19.4324 16.8902 19.1064 17.1152L12.2602 21.7502C11.8255 22.0502 11.2356 22.0052 10.832 21.6602L5.08801 16.5752C4.82409 16.3502 4.68437 16.0052 4.6999 15.6602C4.6999 15.3152 4.87067 15.0002 5.13458 14.7902V14.7752Z" fill="#BF4722"/>
<path fill-rule="evenodd" clip-rule="evenodd" d="M2.75914 26.625C2.38656 26.325 2.23131 25.83 2.37103 25.365L3.87689 20.655C4.00108 20.28 4.29604 19.995 4.66863 19.89C5.04121 19.785 5.46036 19.89 5.7398 20.145L8.33235 22.425C8.61179 22.665 8.75151 23.04 8.72046 23.4C8.68941 23.775 8.47207 24.105 8.14606 24.285L4.04765 26.715C3.6285 26.955 3.1162 26.925 2.72809 26.625H2.75914Z" fill="#BF4722"/>
<path fill-rule="evenodd" clip-rule="evenodd" d="M7.32308 37.2002L4.24927 30.4052C4.0164 29.8652 4.21822 29.2352 4.715 28.9352L10.5676 25.4702C11.0023 25.2152 11.5612 25.2602 11.9338 25.6052L19.075 31.9052C19.3699 32.1752 19.5096 32.5652 19.4475 32.9702C19.3699 33.3602 19.106 33.6902 18.7334 33.8402L8.82893 37.8152C8.25453 38.0402 7.58699 37.7852 7.3386 37.2152L7.32308 37.2002Z" fill="#BF4722"/>
<path fill-rule="evenodd" clip-rule="evenodd" d="M31.1065 40.1102L23.1425 45.5702C22.9562 45.7052 22.7234 45.7802 22.4905 45.7802C22.2576 45.7802 22.0248 45.7052 21.8385 45.5702L13.8901 40.1102C13.533 39.8702 13.3467 39.4502 13.3933 39.0302C13.4399 38.6102 13.7193 38.2502 14.1229 38.0852L22.0714 34.9052C22.3508 34.8002 22.6613 34.8002 22.9407 34.9052L30.8891 38.0852C31.2772 38.2502 31.5412 38.6102 31.5877 39.0302C31.6343 39.4502 31.448 39.8702 31.091 40.1102H31.1065Z" fill="#BF4722"/>
<path fill-rule="evenodd" clip-rule="evenodd" d="M40.7781 30.4202L37.7043 37.2152C37.518 37.6352 37.0989 37.9052 36.6331 37.9052C36.4934 37.9052 36.3382 37.8752 36.1984 37.8152L26.2784 33.8402C25.9058 33.6902 25.6419 33.3602 25.5643 32.9702C25.5022 32.5802 25.6419 32.1752 25.9369 31.9052L33.0781 25.6052C33.4506 25.2752 34.0095 25.2152 34.4442 25.4702L40.2968 28.9352C40.8092 29.2352 41.011 29.8802 40.7626 30.4202H40.7781Z" fill="#BF4722"/>
<path fill-rule="evenodd" clip-rule="evenodd" d="M40.9334 26.7151L36.835 24.2851C36.509 24.1051 36.2917 23.7751 36.2606 23.4001C36.2296 23.0251 36.3693 22.6651 36.6487 22.4251L39.2413 20.1451C39.5362 19.8751 39.9399 19.7851 40.3124 19.8901C40.685 19.9951 40.9955 20.2801 41.1042 20.6551L42.61 25.3651C42.7498 25.8301 42.61 26.3251 42.2219 26.6251C41.8493 26.9251 41.3215 26.9551 40.9024 26.7151H40.9334Z" fill="#BF4722"/>
</svg>
