<svg width="24" height="24" viewBox="0 0 24 24" fill="none" xmlns="http://www.w3.org/2000/svg">
<path fill-rule="evenodd" clip-rule="evenodd" d="M6.46488 3.9734C8.0924 2.85119 10.0226 2.25024 11.9995 2.25024C13.9764 2.25024 15.9066 2.85119 17.5342 3.9734C19.1617 5.0956 20.4096 6.68603 21.1125 8.53378C21.8153 10.3815 21.9399 12.3993 21.4697 14.3194C20.9996 16.239 19.9582 17.9707 18.4813 19.2846C16.6978 20.8755 14.3897 21.7531 12.0001 21.75C9.60995 21.7533 7.30244 20.8756 5.51878 19.2846C4.04206 17.9709 2.99952 16.2393 2.52936 14.3194C2.05912 12.3993 2.18369 10.3815 2.88655 8.53378C3.58941 6.68603 4.83735 5.0956 6.46488 3.9734ZM11.9995 3.75024C10.3267 3.75024 8.69349 4.25874 7.31636 5.2083C5.93922 6.15785 4.88327 7.5036 4.28855 9.06708C3.69382 10.6306 3.58841 12.3379 3.98631 13.9626C4.3842 15.5874 5.2666 17.0528 6.51647 18.1646L6.51725 18.1653C8.02578 19.5108 9.97742 20.2531 11.9989 20.2499H12.0011C14.0223 20.2528 15.9745 19.5106 17.4828 18.1653L17.4836 18.1646C18.7332 17.053 19.6148 15.5876 20.0127 13.9626C20.4106 12.3379 20.3052 10.6306 19.7105 9.06708C19.1158 7.5036 18.0598 6.15785 16.6827 5.2083C15.3055 4.25874 13.6723 3.75024 11.9995 3.75024ZM12 7.49995C11.4033 7.49995 10.831 7.737 10.409 8.15896C9.98707 8.58092 9.75001 9.15321 9.75001 9.74995C9.75001 10.3467 9.98707 10.919 10.409 11.3409C10.831 11.7629 11.4033 11.9999 12 11.9999C12.5968 11.9999 13.169 11.7629 13.591 11.3409C14.013 10.919 14.25 10.3467 14.25 9.74995C14.25 9.15321 14.013 8.58092 13.591 8.15896C13.169 7.737 12.5968 7.49995 12 7.49995ZM9.34836 7.0983C10.0516 6.39504 11.0055 5.99995 12 5.99995C12.9946 5.99995 13.9484 6.39504 14.6517 7.0983C15.3549 7.80156 15.75 8.75539 15.75 9.74995C15.75 10.7445 15.3549 11.6983 14.6517 12.4016C13.9484 13.1049 12.9946 13.4999 12 13.4999C11.0055 13.4999 10.0516 13.1049 9.34836 12.4016C8.6451 11.6983 8.25001 10.7445 8.25001 9.74995C8.25001 8.75539 8.6451 7.80156 9.34836 7.0983Z" fill="#8BA19F"/>
<path fill-rule="evenodd" clip-rule="evenodd" d="M8.30689 15.8618C9.44872 15.294 10.7068 14.999 11.982 15C13.2573 14.999 14.5154 15.294 15.6572 15.8618C16.7992 16.4298 17.7938 17.2552 18.5625 18.273C18.8122 18.6035 18.7466 19.0738 18.4161 19.3235C18.0855 19.5731 17.6152 19.5076 17.3656 19.177C16.7368 18.3446 15.9233 17.6695 14.9893 17.2049C14.0552 16.7404 13.026 16.4991 11.9827 16.5H11.9814C10.9381 16.4991 9.90893 16.7404 8.97483 17.2049C8.04074 17.6695 7.22727 18.3446 6.59852 19.177C6.34887 19.5076 5.87855 19.5731 5.54802 19.3235C5.21749 19.0738 5.15192 18.6035 5.40156 18.273C6.17029 17.2552 7.16485 16.4298 8.30689 15.8618ZM11.982 15C11.9823 15 11.9825 15 11.9827 15L11.982 15.75L11.9814 15C11.9816 15 11.9818 15 11.982 15Z" fill="#8BA19F"/>
</svg>
