<svg width="24" height="24" viewBox="0 0 24 24" fill="none" xmlns="http://www.w3.org/2000/svg">
<path fill-rule="evenodd" clip-rule="evenodd" d="M15.2198 6.26845C15.3683 5.88177 15.8022 5.68867 16.1889 5.83716L22.1289 8.11816C22.5155 8.26663 22.7086 8.70041 22.5602 9.08707L20.2802 15.0271C20.1318 15.4138 19.6979 15.6069 19.3112 15.4585C18.9245 15.3101 18.7314 14.8763 18.8798 14.4896L20.511 10.24L19.424 10.724C17.0663 11.7691 15.1416 13.5958 13.9748 15.8956C13.8661 16.1099 13.6613 16.2592 13.424 16.297C13.1867 16.3348 12.9456 16.2566 12.7757 16.0866L9 12.311L2.78033 18.5306C2.48744 18.8235 2.01256 18.8235 1.71967 18.5306C1.42678 18.2377 1.42678 17.7629 1.71967 17.47L8.46967 10.72C8.76256 10.4271 9.23744 10.4271 9.53033 10.72L13.1356 14.3253C14.477 12.1372 16.455 10.3994 18.8158 9.35276C18.8159 9.35273 18.8158 9.35279 18.8158 9.35276L19.9012 8.86951L15.6511 7.23746C15.2645 7.08897 15.0714 6.65513 15.2198 6.26845Z" fill="#8BA19F"/>
</svg>
