<svg width="24" height="24" viewBox="0 0 24 24" fill="none" xmlns="http://www.w3.org/2000/svg">
<path fill-rule="evenodd" clip-rule="evenodd" d="M12 2C6.47715 2 2 6.47715 2 12C2 17.5229 6.47715 22 12 22C17.5229 22 22 17.5229 22 12C22 6.47715 17.5229 2 12 2ZM12 20C7.58172 20 4 16.4183 4 12C4 7.58172 7.58172 4 12 4C16.4183 4 20 7.58172 20 12C20 16.4183 16.4183 20 12 20ZM17 11.91V12C16.9997 12.134 16.9725 12.2667 16.92 12.39C16.8713 12.5092 16.7999 12.6178 16.71 12.71L13.71 15.71L13.7042 15.7158C13.3121 16.1047 12.6789 16.1021 12.29 15.71L12.2842 15.7042C11.8953 15.3121 11.8979 14.6789 12.29 14.29L13.59 13H8C7.44772 13 7 12.5523 7 12C7 11.4477 7.44772 11 8 11H13.66L12.43 9.69C12.0489 9.28959 12.0646 8.65608 12.465 8.275C12.8654 7.89392 13.4989 7.90959 13.88 8.31L16.74 11.31C16.7734 11.3509 16.8035 11.3944 16.83 11.44C16.8762 11.4973 16.9133 11.5614 16.94 11.63C16.9752 11.7194 16.9954 11.814 17 11.91Z" fill="#8BA19F"/>
</svg>
