<svg width="24" height="24" viewBox="0 0 24 24" fill="none" xmlns="http://www.w3.org/2000/svg">
<path d="M12.06 21.5C11.47 21.5 10.89 21.36 10.36 21.09C9.83997 20.82 9.37997 20.43 9.02997 19.96C8.67997 19.48 8.44997 18.93 8.35997 18.35C8.30997 18.06 8.29997 17.77 8.31997 17.47C6.66997 17.22 5.04997 16.8 3.48997 16.23C3.25997 16.14 3.07997 15.95 3.01997 15.71C2.95997 15.47 3.01997 15.21 3.18997 15.03C4.55997 13.51 5.30997 11.55 5.30997 9.51001V8.76001C5.30997 6.96001 6.00997 5.26001 7.28997 3.99001C8.56997 2.72001 10.26 2.01001 12.06 2.01001C13.86 2.01001 15.56 2.71001 16.83 3.99001C18.11 5.26001 18.81 6.96001 18.81 8.76001V9.51001C18.81 11.55 19.56 13.51 20.93 15.03C21.1 15.22 21.16 15.47 21.1 15.71C21.04 15.95 20.86 16.15 20.63 16.23C19.07 16.81 17.45 17.22 15.8 17.47C15.82 17.76 15.8 18.06 15.76 18.35C15.67 18.93 15.43 19.49 15.09 19.96C14.74 20.44 14.28 20.83 13.76 21.09C13.24 21.36 12.65 21.5 12.06 21.5ZM9.80997 17.65C9.80997 17.8 9.80997 17.96 9.83997 18.11C9.89997 18.46 10.04 18.79 10.24 19.08C10.45 19.36 10.72 19.6 11.04 19.76C11.67 20.08 12.45 20.08 13.08 19.76C13.39 19.6 13.67 19.37 13.88 19.08C14.09 18.8 14.23 18.46 14.28 18.11C14.3 17.96 14.31 17.81 14.31 17.65C12.82 17.78 11.31 17.78 9.80997 17.65ZM9.29997 16.09C11.13 16.3 12.98 16.3 14.81 16.09C14.81 16.09 14.83 16.09 14.84 16.09C16.29 15.92 17.72 15.61 19.11 15.16C17.94 13.52 17.3 11.54 17.3 9.50001V8.75001C17.3 7.35001 16.75 6.03001 15.76 5.04001C14.78 4.06001 13.43 3.50001 12.05 3.50001C10.67 3.50001 9.32997 4.05001 8.33997 5.04001C7.34997 6.03001 6.79997 7.35001 6.79997 8.75001V9.50001C6.79997 11.54 6.16997 13.52 4.98997 15.16C6.37997 15.6 7.80997 15.91 9.26997 16.09C9.26997 16.09 9.28997 16.09 9.29997 16.09Z" fill="#8BA19F"/>
</svg>
