<svg width="24" height="24" viewBox="0 0 24 24" fill="none" xmlns="http://www.w3.org/2000/svg">
<path fill-rule="evenodd" clip-rule="evenodd" d="M3.12868 3.12868C3.69129 2.56607 4.45435 2.25 5.25 2.25H18.75C19.5456 2.25 20.3087 2.56607 20.8713 3.12868C21.4339 3.69129 21.75 4.45435 21.75 5.25V15C21.75 15.7956 21.4339 16.5587 20.8713 17.1213C20.3087 17.6839 19.5457 18 18.75 18H15.75V18.257C15.75 18.5526 15.8082 18.8454 15.9213 19.1184C16.0344 19.3915 16.2002 19.6396 16.4092 19.8486L17.0303 20.4697C17.2448 20.6842 17.309 21.0068 17.1929 21.287C17.0768 21.5673 16.8033 21.75 16.5 21.75H7.5C7.19665 21.75 6.92318 21.5673 6.80709 21.287C6.691 21.0068 6.75517 20.6842 6.96967 20.4697L7.59067 19.8487C7.79971 19.6397 7.9656 19.3915 8.07872 19.1184C8.19183 18.8454 8.25004 18.5527 8.25 18.2571V18H5.25C4.45435 18 3.69129 17.6839 3.12868 17.1213C2.56607 16.5587 2.25 15.7956 2.25 15V5.25C2.25 4.45435 2.56607 3.69129 3.12868 3.12868ZM3.75 5.25V12C3.75 12.3978 3.90804 12.7794 4.18934 13.0607C4.47064 13.342 4.85218 13.5 5.25 13.5H18.75C19.1478 13.5 19.5294 13.342 19.8107 13.0607C20.092 12.7794 20.25 12.3978 20.25 12V5.25C20.25 4.85218 20.092 4.47064 19.8107 4.18934C19.5294 3.90804 19.1478 3.75 18.75 3.75H5.25C4.85218 3.75 4.47064 3.90804 4.18934 4.18934C3.90804 4.47064 3.75 4.85218 3.75 5.25ZM20.25 14.5981C19.7978 14.8591 19.2812 15 18.75 15H5.25C4.71883 15 4.20218 14.8591 3.75 14.5981V15C3.75 15.3978 3.90804 15.7794 4.18934 16.0607C4.47064 16.342 4.85218 16.5 5.25 16.5H18.75C19.1478 16.5 19.5294 16.342 19.8107 16.0607C20.092 15.7794 20.25 15.3978 20.25 15V14.5981ZM14.25 18H9.75V18.2569C9.75 18.2569 9.75 18.2569 9.75 18.2569C9.75005 18.7495 9.65304 19.2374 9.46453 19.6925C9.38416 19.8865 9.28783 20.0729 9.17677 20.25H14.8232C14.7122 20.0729 14.6158 19.8865 14.5355 19.6925C14.347 19.2374 14.25 18.7496 14.25 18.257C14.25 18.257 14.25 18.257 14.25 18.257V18Z" fill="#8BA19F"/>
</svg>
