<svg width="24" height="24" viewBox="0 0 24 24" fill="none" xmlns="http://www.w3.org/2000/svg">
<path fill-rule="evenodd" clip-rule="evenodd" d="M12 3.75C9.81196 3.75 7.71354 4.61919 6.16637 6.16637C4.61919 7.71354 3.75 9.81196 3.75 12C3.75 13.0834 3.96339 14.1562 4.37799 15.1571C4.79259 16.1581 5.40029 17.0675 6.16637 17.8336C6.93245 18.5997 7.84193 19.2074 8.84286 19.622C9.8438 20.0366 10.9166 20.25 12 20.25C13.0834 20.25 14.1562 20.0366 15.1571 19.622C16.1581 19.2074 17.0675 18.5997 17.8336 17.8336C18.5997 17.0675 19.2074 16.1581 19.622 15.1571C20.0366 14.1562 20.25 13.0834 20.25 12C20.25 9.81196 19.3808 7.71354 17.8336 6.16637C16.2865 4.61919 14.188 3.75 12 3.75ZM5.10571 5.10571C6.93419 3.27723 9.41414 2.25 12 2.25C14.5859 2.25 17.0658 3.27723 18.8943 5.10571C20.7228 6.93419 21.75 9.41414 21.75 12C21.75 13.2804 21.4978 14.5482 21.0078 15.7312C20.5178 16.9141 19.7997 17.9889 18.8943 18.8943C17.9889 19.7997 16.9141 20.5178 15.7312 21.0078C14.5482 21.4978 13.2804 21.75 12 21.75C10.7196 21.75 9.45176 21.4978 8.26884 21.0078C7.08591 20.5178 6.01108 19.7997 5.10571 18.8943C4.20034 17.9889 3.48216 16.9141 2.99217 15.7312C2.50219 14.5482 2.25 13.2804 2.25 12C2.25 9.41414 3.27723 6.93419 5.10571 5.10571ZM12 5.25C12.4142 5.25 12.75 5.58579 12.75 6V6.8154C13.377 6.92651 13.9749 7.17866 14.4696 7.57185L14.4698 7.57197L14.8848 7.90197C15.209 8.15977 15.2628 8.63159 15.005 8.95579C14.7472 9.28 14.2754 9.33383 13.9512 9.07603L13.5364 8.74615C13.3092 8.56562 13.0393 8.43432 12.75 8.35228V11.3095C13.4019 11.414 14.0379 11.6583 14.571 12.059C15.3161 12.6179 15.75 13.4034 15.75 14.25C15.75 15.0966 15.3161 15.8821 14.571 16.441C14.0378 16.8409 13.402 17.0857 12.75 17.1905V18C12.75 18.4142 12.4142 18.75 12 18.75C11.5858 18.75 11.25 18.4142 11.25 18V17.1906C10.598 17.0859 9.9622 16.8411 9.42911 16.4411C9.42899 16.441 9.42887 16.4409 9.42875 16.4408L8.55011 15.7821C8.21869 15.5336 8.15145 15.0635 8.39992 14.7321C8.64839 14.4007 9.11847 14.3335 9.44989 14.5819L10.3289 15.2409L10.3292 15.2412C10.5866 15.4344 10.9029 15.5774 11.25 15.6619V12.6843C10.6326 12.5748 10.0329 12.3271 9.53068 11.9284L9.53036 11.9282C8.81819 11.3622 8.4175 10.5787 8.4175 9.75C8.4175 8.92134 8.81819 8.13785 9.53036 7.57185C10.0251 7.17866 10.623 6.92651 11.25 6.8154V6C11.25 5.58579 11.5858 5.25 12 5.25ZM11.25 8.35228C10.9607 8.43432 10.6908 8.56562 10.4636 8.74615C10.0698 9.05915 9.9175 9.42716 9.9175 9.75C9.9175 10.0728 10.0698 10.4408 10.4636 10.7538C10.6861 10.9303 10.9552 11.0636 11.25 11.1473V8.35228ZM12.75 12.8381V15.6617C13.097 15.5772 13.4134 15.4342 13.671 15.241C14.0979 14.9209 14.25 14.5549 14.25 14.25C14.25 13.9451 14.0979 13.5791 13.671 13.259L13.6702 13.2584C13.4135 13.0653 13.0973 12.9224 12.75 12.8381Z" fill="#8BA19F"/>
</svg>
