<svg width="24" height="24" viewBox="0 0 24 24" fill="none" xmlns="http://www.w3.org/2000/svg">
<path fill-rule="evenodd" clip-rule="evenodd" d="M2.37868 4.62868C2.94129 4.06607 3.70435 3.75 4.5 3.75H19.5C20.2957 3.75 21.0587 4.06607 21.6213 4.62868C22.1839 5.19129 22.5 5.95435 22.5 6.75V6.99292V17.25C22.5 18.0456 22.1839 18.8087 21.6213 19.3713C21.0587 19.9339 20.2957 20.25 19.5 20.25H4.5C3.70435 20.25 2.94129 19.9339 2.37868 19.3713C1.81607 18.8087 1.5 18.0456 1.5 17.25V6.99458V6.75C1.5 5.95435 1.81607 5.19129 2.37868 4.62868ZM3 6.75V6.994C3 6.99411 3 6.99389 3 6.994C3.00003 7.24998 3.06557 7.50212 3.19038 7.72561C3.31518 7.94909 3.49509 8.13691 3.71299 8.2712L11.213 12.8852C11.4495 13.0309 11.7222 13.1082 12 13.1082C12.2778 13.1082 12.5501 13.0311 12.7867 12.8854L20.2867 8.27042C20.5046 8.13612 20.6848 7.94811 20.8096 7.72461C20.9344 7.50112 21 7.2494 21 6.99342C21 6.99331 21 6.99353 21 6.99342V6.75C21 6.35218 20.842 5.97064 20.5607 5.68934C20.2794 5.40804 19.8978 5.25 19.5 5.25H4.5C4.10218 5.25 3.72064 5.40804 3.43934 5.68934C3.15804 5.97064 3 6.35218 3 6.75ZM21 9.59271L13.5733 14.1626C13.5732 14.1626 13.5734 14.1625 13.5733 14.1626C13.1003 14.4538 12.5555 14.6082 12 14.6082C11.4445 14.6082 10.9 14.454 10.427 14.1628C10.4269 14.1627 10.4271 14.1629 10.427 14.1628L3 9.5937V17.25C3 17.6478 3.15804 18.0294 3.43934 18.3107C3.72064 18.592 4.10218 18.75 4.5 18.75H19.5C19.8978 18.75 20.2794 18.592 20.5607 18.3107C20.842 18.0294 21 17.6478 21 17.25V9.59271Z" fill="#8BA19F"/>
</svg>
