<svg width="24" height="24" viewBox="0 0 24 24" fill="none" xmlns="http://www.w3.org/2000/svg">
<path fill-rule="evenodd" clip-rule="evenodd" d="M12 5.25C7.69257 5.25 4.03586 8.04402 2.74773 11.9196L2.74765 11.9198C2.72979 11.9735 2.72979 12.0315 2.74765 12.0852C4.03874 15.9589 7.69454 18.75 12 18.75C16.3075 18.75 19.9641 15.956 21.2512 12.0806L21.2522 12.0778C21.2701 12.0246 21.2697 11.969 21.2525 11.9183L21.2515 11.9151C19.9605 8.04115 16.3055 5.25 12 5.25ZM1.32437 11.4462C2.81031 6.97587 7.02754 3.75 12 3.75C16.9705 3.75 21.1856 6.97285 22.6745 11.4409C22.7961 11.8027 22.7956 12.1934 22.6743 12.5548C21.189 17.0247 16.972 20.25 12 20.25C7.02961 20.25 2.8135 17.0272 1.32448 12.5591L1.32437 12.5588C1.20424 12.1977 1.20421 11.8075 1.32429 11.4464" fill="#8BA19F"/>
<path fill-rule="evenodd" clip-rule="evenodd" d="M12 9.75C11.4033 9.75 10.831 9.98705 10.409 10.409C9.98705 10.831 9.75 11.4033 9.75 12C9.75 12.5967 9.98705 13.169 10.409 13.591C10.831 14.0129 11.4033 14.25 12 14.25C12.5967 14.25 13.169 14.0129 13.591 13.591C14.0129 13.169 14.25 12.5967 14.25 12C14.25 11.4033 14.0129 10.831 13.591 10.409C13.169 9.98705 12.5967 9.75 12 9.75ZM9.34835 9.34835C10.0516 8.64509 11.0054 8.25 12 8.25C12.9946 8.25 13.9484 8.64509 14.6517 9.34835C15.3549 10.0516 15.75 11.0054 15.75 12C15.75 12.9946 15.3549 13.9484 14.6517 14.6517C13.9484 15.3549 12.9946 15.75 12 15.75C11.0054 15.75 10.0516 15.3549 9.34835 14.6517C8.64509 13.9484 8.25 12.9946 8.25 12C8.25 11.0054 8.64509 10.0516 9.34835 9.34835Z" fill="#8BA19F"/>
</svg>
