<svg width="24" height="24" viewBox="0 0 24 24" fill="none" xmlns="http://www.w3.org/2000/svg">
<path fill-rule="evenodd" clip-rule="evenodd" d="M11.9988 5.25001C10.0942 5.24712 8.23078 5.80497 6.64104 6.854C6.29531 7.08214 5.83011 6.98682 5.60197 6.64109C5.37383 6.29537 5.46916 5.83016 5.81488 5.60202C7.65027 4.39088 9.80156 3.74678 12.0005 3.75001C17.0971 3.75026 21.3997 7.13895 22.7837 11.7838C22.8254 11.9238 22.8254 12.0728 22.7836 12.2128C22.0251 14.751 20.3968 16.941 18.1846 18.3983C17.8387 18.6262 17.3735 18.5305 17.1457 18.1846C16.9178 17.8387 17.0135 17.3736 17.3594 17.1457C19.2146 15.9235 20.5961 14.107 21.2796 11.9977C20.013 8.08147 16.3363 5.25001 12 5.25001L11.9988 5.25001ZM12.0005 3.75001C12.0007 3.75001 12.0009 3.75001 12.0011 3.75001L12 4.50001V3.75001C12.0001 3.75001 12.0003 3.75001 12.0005 3.75001ZM4.46479 7.65079C4.78082 7.91855 4.81995 8.39181 4.55218 8.70784C3.73199 9.67587 3.10958 10.7945 2.71929 12.0002C3.98587 15.9184 7.66346 18.75 12 18.75C12.9231 18.75 13.8146 18.6218 14.6591 18.3832C15.0577 18.2707 15.4721 18.5026 15.5847 18.9012C15.6973 19.2998 15.4654 19.7142 15.0668 19.8268C14.0914 20.1023 13.0628 20.25 12 20.25C6.90312 20.25 2.59924 16.8613 1.21516 12.2141C1.17352 12.0743 1.17356 11.9254 1.21527 11.7856C1.65871 10.2995 2.40522 8.9214 3.40774 7.73818C3.6755 7.42215 4.14876 7.38302 4.46479 7.65079ZM10.5653 8.53573C11.0203 8.34726 11.508 8.25026 12.0005 8.25026C12.4929 8.25026 12.9806 8.34726 13.4356 8.53573C13.8906 8.7242 14.304 9.00044 14.6523 9.34868C15.0005 9.69692 15.2768 10.1103 15.4652 10.5654C15.6537 11.0204 15.7507 11.508 15.7507 12.0005C15.7507 12.493 15.6537 12.9807 15.4652 13.4357C15.2768 13.8907 15.0005 14.3041 14.6523 14.6523C14.3594 14.9452 13.8845 14.9452 13.5916 14.6523C13.2987 14.3594 13.2987 13.8846 13.5916 13.5917C13.8006 13.3827 13.9663 13.1347 14.0794 12.8616C14.1925 12.5886 14.2507 12.296 14.2507 12.0005C14.2507 11.705 14.1925 11.4124 14.0794 11.1394C13.9663 10.8664 13.8006 10.6183 13.5916 10.4093C13.3827 10.2004 13.1346 10.0346 12.8616 9.92155C12.5886 9.80846 12.296 9.75026 12.0005 9.75026C11.705 9.75026 11.4123 9.80846 11.1393 9.92155C10.8663 10.0346 10.6182 10.2004 10.4093 10.4093C10.1164 10.7022 9.64152 10.7022 9.34863 10.4093C9.05574 10.1164 9.05574 9.64157 9.34863 9.34868C9.69687 9.00044 10.1103 8.7242 10.5653 8.53573Z" fill="#8BA19F"/>
<path fill-rule="evenodd" clip-rule="evenodd" d="M2.46967 2.46967C2.76256 2.17678 3.23744 2.17678 3.53033 2.46967L21.5303 20.4697C21.8232 20.7626 21.8232 21.2374 21.5303 21.5303C21.2374 21.8232 20.7626 21.8232 20.4697 21.5303L2.46967 3.53033C2.17678 3.23744 2.17678 2.76256 2.46967 2.46967Z" fill="#8BA19F"/>
</svg>
