<svg width="24" height="24" viewBox="0 0 24 24" fill="none" xmlns="http://www.w3.org/2000/svg">
<path d="M13.3 21.8H10.7C9.8 21.8 9 21.1 8.8 20.2L8.6 18.9C8.6 18.8 8.5 18.6 8.3 18.6C8.2 18.6 8.1 18.5 8.1 18.5C8 18.4 7.8 18.4 7.7 18.4L6.5 18.9C6.1 19.1 5.6 19.1 5.2 18.9C4.8 18.7 4.4 18.5 4.2 18.1L2.9 15.9C2.7 15.5 2.6 15.1 2.7 14.6C2.8 14 3 13.6 3.3 13.4L4.3 12.6C4.4 12.5 4.5 12.4 4.5 12.2V11.9C4.5 11.7 4.4 11.6 4.3 11.5L3.3 10.7C3 10.4 2.8 10 2.7 9.50001C2.6 9.10001 2.7 8.60001 2.9 8.20001L4.2 6.00001C4.4 5.60001 4.8 5.30001 5.2 5.20001C5.6 5.00001 6.1 5.00001 6.5 5.20001L7.7 5.70001C7.8 5.70001 8 5.70001 8.1 5.60001L8.3 5.50001C8.5 5.40001 8.6 5.30001 8.6 5.20001L8.8 3.90001C9 2.90001 9.8 2.20001 10.7 2.20001H13.3C14.2 2.20001 15 2.90001 15.2 3.80001L15.4 5.10001C15.4 5.20001 15.5 5.40001 15.7 5.40001C15.8 5.40001 15.9 5.50001 15.9 5.50001C16 5.60001 16.2 5.60001 16.3 5.60001L17.5 5.10001C17.9 4.90001 18.4 4.90001 18.8 5.10001C19.2 5.20001 19.6 5.50001 19.8 5.90001L21.1 8.10001C21.3 8.50001 21.4 8.90001 21.3 9.40001C21.2 9.80001 21 10.2 20.6 10.5L19.6 11.3C19.5 11.4 19.4 11.5 19.4 11.7V12C19.4 12.2 19.5 12.3 19.6 12.4L20.6 13.2C21.3 13.8 21.5 14.8 21 15.6L19.8 18C19.6 18.4 19.2 18.7 18.8 18.8C18.4 18.9 17.9 18.9 17.5 18.8L16.3 18.3C16.2 18.3 16 18.3 15.9 18.4C15.8 18.4 15.7 18.5 15.7 18.5C15.6 18.6 15.5 18.7 15.4 18.8L15.2 20.1C15 21.1 14.2 21.8 13.3 21.8ZM7.8 16.8C8.2 16.8 8.5 16.9 8.9 17.1L9.1 17.2C9.7 17.5 10 18 10.1 18.6L10.3 19.9C10.3 20.1 10.5 20.2 10.7 20.2H13.3C13.5 20.2 13.6 20.1 13.7 19.9L13.9 18.6C14 18 14.4 17.5 14.9 17.2L15.1 17.1C15.6 16.8 16.3 16.7 16.8 16.9L18 17.4C18.1 17.4 18.2 17.4 18.3 17.4C18.4 17.4 18.5 17.3 18.5 17.2L19.8 15C19.9 14.8 19.9 14.6 19.7 14.5L18.7 13.7C18.2 13.3 18 12.7 18 12.1V11.9C18 11.3 18.2 10.7 18.7 10.3L19.7 9.50001C19.8 9.40001 19.8 9.40001 19.8 9.30001C19.8 9.20001 19.8 9.10001 19.8 9.00001L18.5 6.80001C18.5 6.70001 18.4 6.70001 18.3 6.60001C18.2 6.60001 18.1 6.60001 18 6.60001L16.8 7.00001C16.2 7.20001 15.6 7.10001 15.1 6.80001C15 6.80001 15 6.70001 14.9 6.70001C14.3 6.40001 14 5.90001 13.9 5.30001L13.7 4.00001C13.7 3.80001 13.5 3.70001 13.3 3.70001H10.7C10.5 3.70001 10.4 3.80001 10.3 4.00001L10.1 5.30001C10 5.90001 9.6 6.40001 9.1 6.70001L8.9 6.90001C8.4 7.20001 7.7 7.30001 7.2 7.00001L6 6.60001C5.9 6.60001 5.8 6.60001 5.7 6.60001C5.6 6.60001 5.5 6.70001 5.5 6.80001L4.2 9.00001C4.2 9.10001 4.1 9.20001 4.2 9.30001C4.2 9.40001 4.3 9.50001 4.3 9.50001L5.3 10.3C5.8 10.7 6 11.3 6 11.9V12.1C6 12.7 5.8 13.3 5.3 13.7L4.3 14.5C4.2 14.6 4.2 14.6 4.2 14.7C4.2 14.8 4.2 14.9 4.2 15L5.5 17.2C5.5 17.3 5.6 17.3 5.7 17.4C5.8 17.4 5.9 17.4 6 17.4L7.2 17C7.4 16.9 7.6 16.8 7.8 16.8Z" fill="#8BA19F"/>
<path fill-rule="evenodd" clip-rule="evenodd" d="M12 9.80001C11.4 9.80001 10.8 10 10.4 10.5C9.99995 10.9 9.69995 11.5 9.69995 12.1C9.69995 12.7 9.89995 13.3 10.4 13.7C10.8 14.1 11.4 14.4 12 14.4C12.6 14.4 13.2 14.2 13.6 13.7C14 13.3 14.3 12.7 14.3 12.1C14.3 11.5 14.1 10.9 13.6 10.5C13.2 10 12.6 9.80001 12 9.80001ZM9.29995 9.30001C10.1 8.60001 11 8.20001 12 8.20001C13 8.20001 13.9 8.60001 14.7 9.30001C15.4 10 15.8 11 15.8 12C15.8 13 15.4 13.9 14.7 14.7C14 15.4 13 15.8 12 15.8C11 15.8 10.1 15.4 9.29995 14.7C8.59995 13.9 8.19995 13 8.19995 12C8.19995 11 8.59995 10.1 9.29995 9.30001Z" fill="#8BA19F"/>
</svg>
