<svg width="24" height="24" viewBox="0 0 24 24" fill="none" xmlns="http://www.w3.org/2000/svg">
<path fill-rule="evenodd" clip-rule="evenodd" d="M3.375 6.75C3.16821 6.75 3 6.91821 3 7.125V10.875C3 10.9745 3.03951 11.0698 3.10984 11.1402C3.18016 11.2105 3.27554 11.25 3.375 11.25H9.375C9.58179 11.25 9.75 11.0818 9.75 10.875V7.125C9.75 6.91821 9.58179 6.75 9.375 6.75H3.375ZM1.5 7.125C1.5 6.08979 2.33979 5.25 3.375 5.25H9.375C10.4102 5.25 11.25 6.08979 11.25 7.125V10.875C11.25 11.9102 10.4102 12.75 9.375 12.75H3.375C2.87772 12.75 2.40081 12.5525 2.04917 12.2008C1.69754 11.8492 1.5 11.3723 1.5 10.875V7.125ZM15.375 8.25C15.1682 8.25 15 8.41821 15 8.625V16.875C15 16.9745 15.0395 17.0698 15.1098 17.1402C15.1802 17.2105 15.2755 17.25 15.375 17.25H20.625C20.8318 17.25 21 17.0818 21 16.875V8.625C21 8.41821 20.8318 8.25 20.625 8.25H15.375ZM13.5 8.625C13.5 7.58979 14.3398 6.75 15.375 6.75H20.625C21.6602 6.75 22.5 7.58979 22.5 8.625V16.875C22.5 17.9102 21.6602 18.75 20.625 18.75H15.375C14.8777 18.75 14.4008 18.5525 14.0492 18.2008C13.6975 17.8492 13.5 17.3723 13.5 16.875V8.625ZM4.875 15.75C4.66821 15.75 4.5 15.9182 4.5 16.125V18.375C4.5 18.4745 4.53951 18.5698 4.60984 18.6402C4.68016 18.7105 4.77554 18.75 4.875 18.75H10.125C10.3318 18.75 10.5 18.5818 10.5 18.375V16.125C10.5 15.9182 10.3318 15.75 10.125 15.75H4.875ZM3 16.125C3 15.0898 3.83979 14.25 4.875 14.25H10.125C11.1602 14.25 12 15.0898 12 16.125V18.375C12 19.4102 11.1602 20.25 10.125 20.25H4.875C4.37772 20.25 3.90081 20.0525 3.54917 19.7008C3.19754 19.3492 3 18.8723 3 18.375V16.125Z" fill="#8BA19F"/>
</svg>
