<svg width="24" height="24" viewBox="0 0 24 24" fill="none" xmlns="http://www.w3.org/2000/svg">
<path fill-rule="evenodd" clip-rule="evenodd" d="M12 3.75C9.81196 3.75 7.71354 4.61919 6.16637 6.16637C4.61919 7.71354 3.75 9.81196 3.75 12C3.75 13.0834 3.96339 14.1562 4.37799 15.1571C4.79259 16.1581 5.40029 17.0675 6.16637 17.8336C6.93245 18.5997 7.84193 19.2074 8.84286 19.622C9.8438 20.0366 10.9166 20.25 12 20.25C13.0834 20.25 14.1562 20.0366 15.1571 19.622C16.1581 19.2074 17.0675 18.5997 17.8336 17.8336C18.5997 17.0675 19.2074 16.1581 19.622 15.1571C20.0366 14.1562 20.25 13.0834 20.25 12C20.25 9.81196 19.3808 7.71354 17.8336 6.16637C16.2865 4.61919 14.188 3.75 12 3.75ZM5.10571 5.10571C6.93419 3.27723 9.41414 2.25 12 2.25C14.5859 2.25 17.0658 3.27723 18.8943 5.10571C20.7228 6.93419 21.75 9.41414 21.75 12C21.75 13.2804 21.4978 14.5482 21.0078 15.7312C20.5178 16.9141 19.7997 17.9889 18.8943 18.8943C17.9889 19.7997 16.9141 20.5178 15.7312 21.0078C14.5482 21.4978 13.2804 21.75 12 21.75C10.7196 21.75 9.45176 21.4978 8.26884 21.0078C7.08591 20.5178 6.01108 19.7997 5.10571 18.8943C4.20034 17.9889 3.48216 16.9141 2.99217 15.7312C2.50219 14.5482 2.25 13.2804 2.25 12C2.25 9.41414 3.27723 6.93419 5.10571 5.10571ZM14.6147 6.95445C13.1609 5.68211 10.8387 5.68218 9.38502 6.95466C9.07334 7.22748 9.04184 7.7013 9.31466 8.01298C9.58747 8.32466 10.0613 8.35616 10.373 8.08334C11.2612 7.30589 12.7388 7.30589 13.627 8.08334L13.6273 8.08355C14.4576 8.80973 14.4576 9.94027 13.6273 10.6664L13.625 10.6685C13.4771 10.7988 13.3082 10.909 13.1246 10.9977L13.124 10.9981C12.3093 11.3928 11.251 12.2218 11.251 13.5V14.25C11.251 14.6642 11.5868 15 12.001 15C12.4152 15 12.751 14.6642 12.751 14.25V13.5C12.751 13.1222 13.1027 12.6752 13.778 12.3479C14.0737 12.205 14.3581 12.0216 14.6158 11.7946C16.1284 10.4707 16.1281 8.27797 14.6147 6.95445ZM11.25 17.25C11.25 16.8358 11.5858 16.5 12 16.5H12.008C12.4222 16.5 12.758 16.8358 12.758 17.25V17.258C12.758 17.6722 12.4222 18.008 12.008 18.008H12C11.5858 18.008 11.25 17.6722 11.25 17.258V17.25Z" fill="#8BA19F"/>
</svg>
