<svg width="24" height="24" viewBox="0 0 24 24" fill="none" xmlns="http://www.w3.org/2000/svg">
<path fill-rule="evenodd" clip-rule="evenodd" d="M11.7337 3.57593C11.7337 3.576 11.7338 3.57585 11.7337 3.57593L5.25 10.0604V19.875C5.25 20.0818 5.41821 20.25 5.625 20.25H9V16.125C9 15.0898 9.83979 14.25 10.875 14.25H13.125C14.1602 14.25 15 15.0898 15 16.125V20.25H18.375C18.5818 20.25 18.75 20.0818 18.75 19.875V10.0607L12.2647 3.57532C12.119 3.42962 11.8813 3.42891 11.7337 3.57593ZM20.03 9.2193L13.3253 2.51466C12.5931 1.78244 11.4067 1.7833 10.6743 2.51406L1.71964 11.4697C1.42676 11.7626 1.42679 12.2375 1.7197 12.5304C2.01261 12.8232 2.48748 12.8232 2.78036 12.5303L3.75 11.5605V19.875C3.75 20.9102 4.58979 21.75 5.625 21.75H18.375C19.4102 21.75 20.25 20.9102 20.25 19.875V11.5607L21.2197 12.5303C21.5126 12.8232 21.9874 12.8232 22.2803 12.5303C22.5732 12.2374 22.5732 11.7626 22.2803 11.4697L20.0307 9.22002C20.0305 9.21978 20.0302 9.21954 20.03 9.2193ZM13.5 20.25H10.5V16.125C10.5 15.9182 10.6682 15.75 10.875 15.75H13.125C13.3318 15.75 13.5 15.9182 13.5 16.125V20.25Z" fill="#8BA19F"/>
</svg>
