<svg width="24" height="24" viewBox="0 0 24 24" fill="none" xmlns="http://www.w3.org/2000/svg">
<path fill-rule="evenodd" clip-rule="evenodd" d="M2.15901 4.40901C2.58097 3.98705 3.15326 3.75 3.75 3.75H20.25C20.8467 3.75 21.419 3.98705 21.841 4.40901C22.2629 4.83097 22.5 5.40326 22.5 6V18C22.5 18.5967 22.2629 19.169 21.841 19.591C21.419 20.0129 20.8467 20.25 20.25 20.25H3.75C3.15326 20.25 2.58097 20.0129 2.15901 19.591C1.73705 19.169 1.5 18.5967 1.5 18V6C1.5 5.40326 1.73705 4.83097 2.15901 4.40901ZM3 16.0607V18C3 18.1989 3.07902 18.3897 3.21967 18.5303C3.36032 18.671 3.55109 18.75 3.75 18.75H20.25C20.4489 18.75 20.6397 18.671 20.7803 18.5303C20.921 18.3897 21 18.1989 21 18V16.0607L18.3107 13.3713C18.1714 13.232 18.006 13.1215 17.824 13.0462C17.642 12.9708 17.447 12.932 17.25 12.932C17.053 12.932 16.858 12.9708 16.676 13.0462C16.494 13.1215 16.3286 13.232 16.1893 13.3713L15.3107 14.25L16.2803 15.2197C16.5732 15.5126 16.5732 15.9874 16.2803 16.2803C15.9874 16.5732 15.5126 16.5732 15.2197 16.2803L10.0607 11.1213C9.92138 10.982 9.75602 10.8715 9.57403 10.7962C9.39204 10.7208 9.19698 10.682 9 10.682C8.80302 10.682 8.60796 10.7208 8.42597 10.7962C8.24398 10.8715 8.07862 10.982 7.93933 11.1213L3 16.0607ZM14.25 13.1893L15.1287 12.3107C15.4072 12.0321 15.738 11.8111 16.1019 11.6603C16.4659 11.5096 16.856 11.432 17.25 11.432C17.644 11.432 18.0341 11.5096 18.3981 11.6603C18.762 11.8111 19.0928 12.0321 19.3713 12.3107L21 13.9393V6C21 5.80109 20.921 5.61032 20.7803 5.46967C20.6397 5.32902 20.4489 5.25 20.25 5.25H3.75C3.55109 5.25 3.36032 5.32902 3.21967 5.46967C3.07902 5.61032 3 5.80109 3 6V13.9393L6.87867 10.0607C6.87867 10.0607 6.87867 10.0607 6.87867 10.0607C7.15724 9.78209 7.48796 9.56111 7.85194 9.41035C8.21592 9.25958 8.60603 9.18198 9 9.18198C9.39397 9.18198 9.78408 9.25958 10.1481 9.41035C10.512 9.56111 10.8428 9.78209 11.1213 10.0607L14.25 13.1893ZM13.4545 7.4545C13.6655 7.24353 13.9516 7.125 14.25 7.125C14.5484 7.125 14.8345 7.24353 15.0455 7.4545C15.2565 7.66548 15.375 7.95163 15.375 8.25C15.375 8.54837 15.2565 8.83452 15.0455 9.0455C14.8345 9.25648 14.5484 9.375 14.25 9.375C13.9516 9.375 13.6655 9.25648 13.4545 9.0455C13.2435 8.83452 13.125 8.54837 13.125 8.25C13.125 7.95163 13.2435 7.66548 13.4545 7.4545Z" fill="#8BA19F"/>
</svg>
