<svg width="24" height="24" viewBox="0 0 24 24" fill="none" xmlns="http://www.w3.org/2000/svg">
<path fill-rule="evenodd" clip-rule="evenodd" d="M8.28769 3.03769C9.27226 2.05312 10.6076 1.5 12 1.5C13.3924 1.5 14.7277 2.05312 15.7123 3.03769C16.6969 4.02226 17.25 5.35761 17.25 6.75V9.75C18.0456 9.75 18.8087 10.0661 19.3713 10.6287C19.9339 11.1913 20.25 11.9544 20.25 12.75V19.5C20.25 20.2957 19.9339 21.0587 19.3713 21.6213C18.8087 22.1839 18.0456 22.5 17.25 22.5H6.75C5.95435 22.5 5.19129 22.1839 4.62868 21.6213C4.06607 21.0587 3.75 20.2957 3.75 19.5V12.75C3.75 11.9544 4.06607 11.1913 4.62868 10.6287C5.19129 10.0661 5.95435 9.75 6.75 9.75V6.75C6.75 5.35761 7.30312 4.02226 8.28769 3.03769ZM6.75 11.25C6.35218 11.25 5.97064 11.408 5.68934 11.6893C5.40804 11.9706 5.25 12.3522 5.25 12.75V19.5C5.25 19.8978 5.40804 20.2794 5.68934 20.5607C5.97064 20.842 6.35218 21 6.75 21H17.25C17.6478 21 18.0294 20.842 18.3107 20.5607C18.592 20.2794 18.75 19.8978 18.75 19.5V12.75C18.75 12.3522 18.592 11.9706 18.3107 11.6893C18.0294 11.408 17.6478 11.25 17.25 11.25H6.75ZM15.75 9.75H8.25V6.75C8.25 5.75544 8.64509 4.80161 9.34835 4.09835C10.0516 3.39509 11.0054 3 12 3C12.9946 3 13.9484 3.39509 14.6517 4.09835C15.3549 4.80161 15.75 5.75544 15.75 6.75V9.75Z" fill="#8BA19F"/>
</svg>
