<svg width="24" height="24" viewBox="0 0 24 24" fill="none" xmlns="http://www.w3.org/2000/svg">
<path fill-rule="evenodd" clip-rule="evenodd" d="M10.5 3.75C10.1022 3.75 9.72064 3.90804 9.43934 4.18934C9.15804 4.47064 9 4.85218 9 5.25V9C9 9.41421 8.66421 9.75 8.25 9.75C7.83579 9.75 7.5 9.41421 7.5 9V5.25C7.5 4.45435 7.81607 3.69129 8.37868 3.12868C8.94129 2.56607 9.70435 2.25 10.5 2.25H16.5C17.2956 2.25 18.0587 2.56607 18.6213 3.12868C19.1839 3.69129 19.5 4.45435 19.5 5.25V18.75C19.5 19.5457 19.1839 20.3087 18.6213 20.8713C18.0587 21.4339 17.2956 21.75 16.5 21.75H10.5C9.70435 21.75 8.94129 21.4339 8.37868 20.8713C7.81607 20.3087 7.5 19.5457 7.5 18.75V15C7.5 14.5858 7.83579 14.25 8.25 14.25C8.66421 14.25 9 14.5858 9 15V18.75C9 19.1478 9.15804 19.5294 9.43934 19.8107C9.72064 20.092 10.1022 20.25 10.5 20.25H16.5C16.8978 20.25 17.2794 20.092 17.5607 19.8107C17.842 19.5294 18 19.1478 18 18.75V5.25C18 4.85218 17.842 4.47064 17.5607 4.18934C17.2794 3.90804 16.8978 3.75 16.5 3.75H10.5ZM5.78033 8.46967C6.07322 8.76256 6.07322 9.23744 5.78033 9.53033L4.06066 11.25H15C15.4142 11.25 15.75 11.5858 15.75 12C15.75 12.4142 15.4142 12.75 15 12.75H4.06066L5.78033 14.4697C6.07322 14.7626 6.07322 15.2374 5.78033 15.5303C5.48744 15.8232 5.01256 15.8232 4.71967 15.5303L1.71967 12.5303C1.42678 12.2374 1.42678 11.7626 1.71967 11.4697L4.71967 8.46967C5.01256 8.17678 5.48744 8.17678 5.78033 8.46967Z" fill="#8BA19F"/>
</svg>
