<svg width="24" height="24" viewBox="0 0 24 24" fill="none" xmlns="http://www.w3.org/2000/svg">
<path fill-rule="evenodd" clip-rule="evenodd" d="M3.375 3.75C2.33979 3.75 1.5 4.58979 1.5 5.625V15.375C1.5 15.8723 1.69754 16.3492 2.04917 16.7008C2.40081 17.0525 2.87772 17.25 3.375 17.25H20.625C21.6602 17.25 22.5 16.4102 22.5 15.375V5.625C22.5 4.58979 21.6602 3.75 20.625 3.75H3.375ZM4.5 5.25C4.5 5.64782 4.34197 6.02936 4.06066 6.31066C3.77936 6.59197 3.39782 6.75 3 6.75V14.25C3.39783 14.25 3.77936 14.408 4.06066 14.6893C4.34196 14.9706 4.5 15.3522 4.5 15.75H19.5C19.5 15.3522 19.658 14.9706 19.9393 14.6893C20.2206 14.408 20.6022 14.25 21 14.25V6.75C20.1718 6.75 19.5 6.07821 19.5 5.25H4.5ZM12 8.25C11.4033 8.25 10.831 8.48705 10.409 8.90901C9.98705 9.33097 9.75 9.90326 9.75 10.5C9.75 11.0967 9.98705 11.669 10.409 12.091C10.831 12.5129 11.4033 12.75 12 12.75C12.5967 12.75 13.169 12.5129 13.591 12.091C14.0129 11.669 14.25 11.0967 14.25 10.5C14.25 9.90326 14.0129 9.33097 13.591 8.90901C13.169 8.48705 12.5967 8.25 12 8.25ZM9.34835 7.84835C10.0516 7.14509 11.0054 6.75 12 6.75C12.9946 6.75 13.9484 7.14509 14.6517 7.84835C15.3549 8.55161 15.75 9.50544 15.75 10.5C15.75 11.4946 15.3549 12.4484 14.6517 13.1517C13.9484 13.8549 12.9946 14.25 12 14.25C11.0054 14.25 10.0516 13.8549 9.34835 13.1517C8.64509 12.4484 8.25 11.4946 8.25 10.5C8.25 9.50544 8.64509 8.55161 9.34835 7.84835ZM5.25 10.5C5.25 10.0858 5.58579 9.75 6 9.75H6.008C6.42221 9.75 6.758 10.0858 6.758 10.5V10.508C6.758 10.9222 6.42221 11.258 6.008 11.258H6C5.58579 11.258 5.25 10.9222 5.25 10.508V10.5ZM17.25 10.5C17.25 10.0858 17.5858 9.75 18 9.75H18.008C18.4222 9.75 18.758 10.0858 18.758 10.5V10.508C18.758 10.9222 18.4222 11.258 18.008 11.258H18C17.5858 11.258 17.25 10.9222 17.25 10.508V10.5ZM17.8499 21.5746C12.7654 20.1934 7.51944 19.4957 2.25061 19.5C1.8364 19.5003 1.50034 19.1648 1.5 18.7506C1.49966 18.3364 1.83518 18.0003 2.24939 18C7.65161 17.9956 13.0303 18.711 18.2436 20.1272C18.507 20.199 18.75 20.0007 18.75 19.755V18.75C18.75 18.3358 19.0858 18 19.5 18C19.9142 18 20.25 18.3358 20.25 18.75V19.755C20.25 21.0173 19.0405 21.8989 17.8499 21.5746ZM17.8499 21.5746C17.8498 21.5746 17.8501 21.5747 17.8499 21.5746Z" fill="#8BA19F"/>
</svg>
