<svg width="24" height="24" viewBox="0 0 24 24" fill="none" xmlns="http://www.w3.org/2000/svg">
<path d="M12.8 21.8C6.99995 21.8 2.19995 17 2.19995 11.2C2.19995 9.1 2.79995 7.1 3.99995 5.4C5.19995 3.7 6.79995 2.3 8.69995 1.5C8.99995 1.4 9.29995 1.5 9.49995 1.7C9.69995 1.9 9.79995 2.2 9.69995 2.5C9.19995 3.6 8.99995 4.8 8.99995 6C8.99995 11 13 15 18 15C19.2 15 20.4 14.8 21.5 14.3C21.8 14.2 22.0999 14.2 22.2999 14.5C22.4999 14.7 22.6 15 22.5 15.3C21.7 17.2 20.4 18.8 18.6 20C16.8 21.1 14.8 21.8 12.8 21.8ZM7.69995 3.8C6.69995 4.5 5.89995 5.3 5.19995 6.3C4.19995 7.8 3.69995 9.5 3.69995 11.3C3.69995 16.3 7.69995 20.3 12.7 20.3C14.5 20.3 16.2 19.8 17.7 18.8C18.7 18.1 19.5 17.3 20.2 16.3C19.5 16.5 18.7 16.5 18 16.5C12.2 16.5 7.49995 11.8 7.49995 6C7.49995 5.2 7.59995 4.5 7.69995 3.8Z" fill="#8BA19F"/>
</svg>
