<svg width="24" height="24" viewBox="0 0 24 24" fill="none" xmlns="http://www.w3.org/2000/svg">
<path fill-rule="evenodd" clip-rule="evenodd" d="M4.66572 4.66567C6.21295 3.11845 8.31144 2.24922 10.4995 2.24922C12.6877 2.24922 14.7862 3.11845 16.3334 4.66567C17.8806 6.2129 18.7498 8.31139 18.7498 10.4995C18.7498 12.4362 18.0689 14.3027 16.8396 15.7789L21.5304 20.4697C21.8233 20.7626 21.8233 21.2374 21.5304 21.5303C21.2375 21.8232 20.7626 21.8232 20.4697 21.5303L15.7789 16.8395C14.3027 18.0688 12.4362 18.7498 10.4995 18.7498C8.31144 18.7498 6.21295 17.8806 4.66572 16.3333C3.11849 14.7861 2.24927 12.6876 2.24927 10.4995C2.24927 8.31139 3.11849 6.2129 4.66572 4.66567ZM10.4995 3.74922C8.70926 3.74922 6.9923 4.46041 5.72638 5.72633C4.46046 6.99226 3.74927 8.70922 3.74927 10.4995C3.74927 12.2898 4.46046 14.0068 5.72638 15.2727C6.9923 16.5386 8.70926 17.2498 10.4995 17.2498C12.2898 17.2498 14.0068 16.5386 15.2727 15.2727C16.5386 14.0067 17.2498 12.2898 17.2498 10.4995C17.2498 8.70922 16.5386 6.99226 15.2727 5.72633C14.0068 4.46041 12.2898 3.74922 10.4995 3.74922Z" fill="#8BA19F"/>
</svg>
