<svg width="24" height="24" viewBox="0 0 24 24" fill="none" xmlns="http://www.w3.org/2000/svg">
<path fill-rule="evenodd" clip-rule="evenodd" d="M2.73452 2.5988C2.92797 2.40232 3.21363 2.32784 3.47839 2.40484C10.0932 4.32869 16.331 7.36781 21.923 11.3912C22.1188 11.5321 22.2349 11.7587 22.2349 12C22.2349 12.2413 22.1188 12.4679 21.923 12.6088C16.3314 16.6321 10.0939 19.6712 3.47941 21.5952C3.21466 21.6722 2.92901 21.5977 2.73555 21.4012C2.54209 21.2048 2.47202 20.918 2.55309 20.6545L5.21525 12L2.55211 3.34559C2.47102 3.08205 2.54106 2.79527 2.73452 2.5988ZM6.55392 12.75L4.40146 19.7475C10.0192 17.9677 15.3394 15.3564 20.1846 12C15.3391 8.64353 10.0186 6.03222 4.40061 4.25254L6.55386 11.25H13.4999C13.9142 11.25 14.2499 11.5858 14.2499 12C14.2499 12.4142 13.9142 12.75 13.4999 12.75H6.55392Z" fill="#8BA19F"/>
</svg>
