<svg width="24" height="24" viewBox="0 0 24 24" fill="none" xmlns="http://www.w3.org/2000/svg">
<path fill-rule="evenodd" clip-rule="evenodd" d="M7.40901 4.40901C7.83097 3.98705 8.40326 3.75 9 3.75C9.59674 3.75 10.169 3.98705 10.591 4.40901C10.8305 4.64856 11.0105 4.93657 11.1213 5.25H20.25C20.6642 5.25 21 5.58579 21 6C21 6.41421 20.6642 6.75 20.25 6.75H11.1213C11.0105 7.06343 10.8305 7.35144 10.591 7.59099C10.169 8.01295 9.59674 8.25 9 8.25C8.40326 8.25 7.83097 8.01295 7.40901 7.59099C7.16946 7.35144 6.9895 7.06343 6.87868 6.75H3.75C3.33579 6.75 3 6.41421 3 6C3 5.58579 3.33579 5.25 3.75 5.25H6.87868C6.9895 4.93657 7.16946 4.64856 7.40901 4.40901ZM9 5.25C8.80109 5.25 8.61032 5.32902 8.46967 5.46967C8.32902 5.61032 8.25 5.80109 8.25 6C8.25 6.19891 8.32902 6.38968 8.46967 6.53033C8.61032 6.67098 8.80109 6.75 9 6.75C9.19891 6.75 9.38968 6.67098 9.53033 6.53033C9.67098 6.38968 9.75 6.19891 9.75 6C9.75 5.80109 9.67098 5.61032 9.53033 5.46967C9.38968 5.32902 9.19891 5.25 9 5.25ZM13.409 10.409C13.831 9.98705 14.4033 9.75 15 9.75C15.5967 9.75 16.169 9.98705 16.591 10.409C16.8305 10.6486 17.0105 10.9366 17.1213 11.25H20.25C20.6642 11.25 21 11.5858 21 12C21 12.4142 20.6642 12.75 20.25 12.75H17.1213C17.0105 13.0634 16.8305 13.3514 16.591 13.591C16.169 14.0129 15.5967 14.25 15 14.25C14.4033 14.25 13.831 14.0129 13.409 13.591C13.1695 13.3514 12.9895 13.0634 12.8787 12.75H3.75C3.33579 12.75 3 12.4142 3 12C3 11.5858 3.33579 11.25 3.75 11.25H12.8787C12.9895 10.9366 13.1695 10.6486 13.409 10.409ZM15 11.25C14.8011 11.25 14.6103 11.329 14.4697 11.4697C14.329 11.6103 14.25 11.8011 14.25 12C14.25 12.1989 14.329 12.3897 14.4697 12.5303C14.6103 12.671 14.8011 12.75 15 12.75C15.1989 12.75 15.3897 12.671 15.5303 12.5303C15.671 12.3897 15.75 12.1989 15.75 12C15.75 11.8011 15.671 11.6103 15.5303 11.4697C15.3897 11.329 15.1989 11.25 15 11.25ZM7.40901 16.409C7.83097 15.9871 8.40326 15.75 9 15.75C9.59674 15.75 10.169 15.9871 10.591 16.409C10.8305 16.6486 11.0105 16.9366 11.1213 17.25H20.25C20.6642 17.25 21 17.5858 21 18C21 18.4142 20.6642 18.75 20.25 18.75H11.1213C11.0105 19.0634 10.8305 19.3514 10.591 19.591C10.169 20.0129 9.59674 20.25 9 20.25C8.40326 20.25 7.83097 20.0129 7.40901 19.591C7.16946 19.3514 6.9895 19.0634 6.87868 18.75H3.75C3.33579 18.75 3 18.4142 3 18C3 17.5858 3.33579 17.25 3.75 17.25H6.87868C6.9895 16.9366 7.16946 16.6486 7.40901 16.409ZM9 17.25C8.80109 17.25 8.61032 17.329 8.46967 17.4697C8.32902 17.6103 8.25 17.8011 8.25 18C8.25 18.1989 8.32902 18.3897 8.46967 18.5303C8.61032 18.671 8.80109 18.75 9 18.75C9.19891 18.75 9.38968 18.671 9.53033 18.5303C9.67098 18.3897 9.75 18.1989 9.75 18C9.75 17.8011 9.67098 17.6103 9.53033 17.4697C9.38968 17.329 9.19891 17.25 9 17.25Z" fill="#8BA19F"/>
</svg>
