<svg width="24" height="24" viewBox="0 0 24 24" fill="none" xmlns="http://www.w3.org/2000/svg">
<path fill-rule="evenodd" clip-rule="evenodd" d="M11.4835 2.17014C11.7727 1.8955 12.2263 1.89524 12.5158 2.16954C14.5319 4.07964 17.2532 5.24899 20.25 5.24899H20.402C20.726 5.24899 21.0133 5.45698 21.1145 5.76472C21.527 7.01936 21.75 8.35939 21.75 9.74999C21.75 15.6925 17.6863 20.6831 12.1869 22.0983C12.0643 22.1299 11.9356 22.1299 11.813 22.0983C6.31373 20.682 2.25 15.6915 2.25 9.74899H3L2.25 9.74959C2.25 9.74939 2.25 9.74919 2.25 9.74899C2.24898 8.39604 2.46346 7.05156 2.88541 5.76609C2.98769 5.45449 3.28055 5.24549 3.60847 5.25006C6.53492 5.29091 9.36128 4.18552 11.4835 2.17014ZM12.0005 3.72172C9.80566 5.58927 7.03907 6.65645 4.15614 6.74514C3.88602 7.72251 3.74918 8.73274 3.75 9.74838L3.75 9.74899C3.75 14.9229 7.24249 19.2822 12.0001 20.5958C16.7575 19.2832 20.25 14.924 20.25 9.74999C20.25 8.7075 20.1083 7.69912 19.8437 6.74264C16.8565 6.64915 14.1274 5.52854 12.0005 3.72172ZM15.4359 9.13969C15.773 9.38045 15.8511 9.84886 15.6103 10.1859L11.8603 15.4359C11.7322 15.6153 11.5316 15.7292 11.3119 15.7474C11.0922 15.7656 10.8756 15.6862 10.7197 15.5303L8.46967 13.2803C8.17678 12.9874 8.17678 12.5126 8.46967 12.2197C8.76257 11.9268 9.23744 11.9268 9.53033 12.2197L11.1543 13.8436L14.3897 9.31406C14.6305 8.977 15.0989 8.89893 15.4359 9.13969Z" fill="#8BA19F"/>
</svg>
