<svg width="24" height="24" viewBox="0 0 24 24" fill="none" xmlns="http://www.w3.org/2000/svg">
<path d="M8.20002 21.8C8.10002 21.8 8.00002 21.8 7.90002 21.7C7.60002 21.6 7.40002 21.3 7.40002 21V17C6.50002 16.9 5.60002 16.8 4.70002 16.7C2.80002 16.4 1.40002 14.7 1.40002 12.7V6.70001C1.40002 4.70001 2.80002 3.00001 4.70002 2.70001C7.20002 2.40001 9.60002 2.20001 12 2.20001C14.4 2.20001 16.8 2.40001 19.1 2.70001C21 3.00001 22.4 4.70001 22.4 6.70001V12.7C22.4 14.7 21 16.4 19.1 16.7C17.2 17 15.3 17.1 13.3 17.2C13.1 17.2 12.9 17.3 12.8 17.4L8.70002 21.5C8.60002 21.7 8.40002 21.8 8.20002 21.8ZM12 3.80001C9.70002 3.80001 7.30002 4.00001 5.00002 4.30001C3.90002 4.40001 3.00002 5.50001 3.00002 6.70001V12.7C3.00002 14 3.90002 15 5.10002 15.2C6.20002 15.4 7.20002 15.5 8.30002 15.6C8.70002 15.6 9.00002 16 9.00002 16.4V19.2L11.8 16.4C12.2 16 12.8 15.8 13.3 15.7C15.2 15.6 17 15.5 18.9 15.2C20.1 15 21 14 21 12.7V6.70001C21 5.40001 20.1 4.40001 18.9 4.20001C16.7 3.90001 14.3 3.80001 12 3.80001Z" fill="#8BA19F"/>
</svg>
