<svg width="24" height="24" viewBox="0 0 24 24" fill="none" xmlns="http://www.w3.org/2000/svg">
<path fill-rule="evenodd" clip-rule="evenodd" d="M12 2.25C12.4142 2.25 12.75 2.58579 12.75 3V5.25C12.75 5.66421 12.4142 6 12 6C11.5858 6 11.25 5.66421 11.25 5.25V3C11.25 2.58579 11.5858 2.25 12 2.25ZM5.10567 5.10567C5.39856 4.81278 5.87344 4.81278 6.16633 5.10567L7.75733 6.69667C8.05022 6.98956 8.05022 7.46444 7.75733 7.75733C7.46444 8.05022 6.98956 8.05022 6.69667 7.75733L5.10567 6.16633C4.81278 5.87344 4.81278 5.39856 5.10567 5.10567ZM18.8943 5.10567C19.1872 5.39856 19.1872 5.87344 18.8943 6.16633L17.3033 7.75733C17.0104 8.05022 16.5356 8.05022 16.2427 7.75733C15.9498 7.46444 15.9498 6.98956 16.2427 6.69667L17.8337 5.10567C18.1266 4.81278 18.6014 4.81278 18.8943 5.10567ZM12 9C11.2044 9 10.4413 9.31607 9.87868 9.87868C9.31607 10.4413 9 11.2044 9 12C9 12.7956 9.31607 13.5587 9.87868 14.1213C10.4413 14.6839 11.2044 15 12 15C12.7956 15 13.5587 14.6839 14.1213 14.1213C14.6839 13.5587 15 12.7956 15 12C15 11.2044 14.6839 10.4413 14.1213 9.87868C13.5587 9.31607 12.7956 9 12 9ZM8.81802 8.81802C9.66193 7.97411 10.8065 7.5 12 7.5C13.1935 7.5 14.3381 7.97411 15.182 8.81802C16.0259 9.66193 16.5 10.8065 16.5 12C16.5 13.1935 16.0259 14.3381 15.182 15.182C14.3381 16.0259 13.1935 16.5 12 16.5C10.8065 16.5 9.66193 16.0259 8.81802 15.182C7.97411 14.3381 7.5 13.1935 7.5 12C7.5 10.8065 7.97411 9.66193 8.81802 8.81802ZM2.25 12C2.25 11.5858 2.58579 11.25 3 11.25H5.25C5.66421 11.25 6 11.5858 6 12C6 12.4142 5.66421 12.75 5.25 12.75H3C2.58579 12.75 2.25 12.4142 2.25 12ZM18 12C18 11.5858 18.3358 11.25 18.75 11.25H21C21.4142 11.25 21.75 11.5858 21.75 12C21.75 12.4142 21.4142 12.75 21 12.75H18.75C18.3358 12.75 18 12.4142 18 12ZM7.75733 16.2427C8.05022 16.5356 8.05022 17.0104 7.75733 17.3033L6.16633 18.8943C5.87344 19.1872 5.39856 19.1872 5.10567 18.8943C4.81278 18.6014 4.81278 18.1266 5.10567 17.8337L6.69667 16.2427C6.98956 15.9498 7.46444 15.9498 7.75733 16.2427ZM16.2427 16.2427C16.5356 15.9498 17.0104 15.9498 17.3033 16.2427L18.8943 17.8337C19.1872 18.1266 19.1872 18.6014 18.8943 18.8943C18.6014 19.1872 18.1266 19.1872 17.8337 18.8943L16.2427 17.3033C15.9498 17.0104 15.9498 16.5356 16.2427 16.2427ZM12 18C12.4142 18 12.75 18.3358 12.75 18.75V21C12.75 21.4142 12.4142 21.75 12 21.75C11.5858 21.75 11.25 21.4142 11.25 21V18.75C11.25 18.3358 11.5858 18 12 18Z" fill="#8BA19F"/>
</svg>
