<svg width="24" height="24" viewBox="0 0 24 24" fill="none" xmlns="http://www.w3.org/2000/svg">
<path d="M15.9 22.5H8.09997C7.29997 22.5 6.59997 22.2 6.09997 21.7C5.49997 21.2 5.19997 20.5 5.09997 19.7L4.09997 6.6C3.99997 6.6 3.99997 6.6 3.89997 6.6C3.49997 6.8 3.09997 6.5 2.99997 6.1C2.89997 5.7 3.19997 5.3 3.59997 5.2C3.99997 5.2 4.29997 5.1 4.69997 5C5.59997 4.9 6.59997 4.7 7.49997 4.7V4.5C7.49997 2.9 8.69997 1.6 10.3 1.5C11.4 1.5 12.5 1.5 13.7 1.5C15.3 1.5 16.5 2.8 16.5 4.5V4.7C17.4 4.8 18.4 4.9 19.3 5C19.6 5.1 20 5.1 20.3 5.2C20.7 5.3 21 5.7 20.9 6.1C20.8 6.5 20.4 6.8 20 6.7C19.9 6.7 19.9 6.7 19.8 6.7L18.8 19.8C18.7 20.6 18.4 21.3 17.8 21.8C17.4 22.2 16.7 22.5 15.9 22.5ZM5.59997 6.4L6.59997 19.6C6.59997 20 6.79997 20.3 7.09997 20.6C7.39997 20.9 7.69997 21 8.09997 21H15.9C16.3 21 16.6 20.9 16.9 20.6C17.2 20.3 17.3 20 17.4 19.6L18.4 6.4C17.5 6.3 16.6 6.2 15.7 6.1C13.2 6 10.8 6 8.29997 6.1C7.39997 6.2 6.49997 6.3 5.59997 6.4ZM12 4.5C13 4.5 14 4.5 15 4.6V4.5C15 3.7 14.4 3 13.6 3C12.5 3 11.4 3 10.3 3C9.59997 3 8.99997 3.7 8.99997 4.5V4.6C9.99997 4.5 11 4.5 12 4.5ZM14.4 18.8C14 18.8 13.6 18.4 13.6 18L14 9C14 8.6 14.3 8.3 14.7 8.3C15.1 8.3 15.4 8.7 15.4 9.1L15.1 18.1C15.1 18.4 14.8 18.8 14.4 18.8ZM9.59997 18.8C9.19997 18.8 8.89997 18.5 8.89997 18.1L8.49997 9C8.49997 8.6 8.79997 8.2 9.19997 8.2C9.59997 8.2 9.99997 8.6 9.99997 9L10.3 18C10.4 18.4 9.99997 18.7 9.59997 18.8Z" fill="#8BA19F"/>
</svg>
